<?xml version="1.0" encoding="UTF-8"?>
<svg xmlns="http://www.w3.org/2000/svg" version="1.1" viewBox="0 0 150 150">
  <defs>
    <style>
      .cls-1 {
        fill: #fe9900;
      }

      .cls-2 {
        fill: #252f3e;
      }
    </style>
  </defs>
  <!-- Generator: Adobe Illustrator 28.6.0, SVG Export Plug-In . SVG Version: 1.2.0 Build 709)  -->
  <g>
    <g id="Layer_1">
      <path class="cls-1" d="M71.5,119c0,0-.1,0-.2,0-2.3,0-4.7-.2-7-.4-3.6-.3-7.1-.9-10.7-1.5-4.7-.9-9.4-2.1-13.9-3.7-6.9-2.3-13.4-5.3-19.7-8.9-5.6-3.3-10.9-7-15.8-11.2-.7-.6-1.4-1.2-2.1-1.8-.3-.3-.6-.5-.7-.9-.3-1,.5-1.8,1.5-1.6.3,0,.6.2.9.4,4,2.3,8.2,4.5,12.4,6.4,7,3.2,14.3,5.7,21.7,7.7,4.4,1.2,8.8,2.2,13.2,2.9,2.8.5,5.6.9,8.5,1.2,2,.2,4,.4,6.1.6,4.1.3,8.2.4,12.3.4,3.2,0,6.4-.2,9.6-.5,3.2-.3,6.4-.6,9.6-1.1,5.8-.9,11.5-2.1,17.1-3.6,6.1-1.7,12.1-3.7,17.9-6.2.8-.3,1.6-.4,2.4,0,1.1.6,1.4,1.8.7,2.9-.2.4-.6.7-.9.9-5.1,3.8-10.7,6.8-16.6,9.3-5.5,2.3-11.1,4.2-16.9,5.6-3.5.9-7.1,1.6-10.7,2.1-2.4.3-4.7.6-7.1.8-1.7.1-3.5.2-5.2.3,0,0-.1,0-.2,0h-6.3Z"/>
      <path class="cls-2" d="M128.5,31c.3.1.6,0,1,.1,2.7.3,5.3.8,7.7,1.8.7.3,1.4.7,2,1.2.6.5.8,1.1.8,1.9,0,.9,0,1.8,0,2.7,0,.2,0,.4,0,.5-.2.6-.6.9-1.3.8-.4,0-.9-.2-1.3-.4-1.9-.9-3.9-1.5-6-1.8-2.8-.4-5.6-.5-8.3.3-1.1.3-2.1.7-2.9,1.5-1.1,1-1.4,2.4-1.4,3.8,0,1.8.9,3.2,2.5,4.1,1.5.9,3.1,1.5,4.8,2.1,2.6.8,5.1,1.6,7.7,2.5,2,.7,3.8,1.6,5.3,3.1,1.9,1.8,3,4,3.3,6.6.3,2.3,0,4.6-.9,6.7-1.1,2.4-2.8,4.3-5.1,5.7-2.1,1.3-4.5,2.1-7,2.5-2.3.4-4.6.5-6.9.2-3.4-.3-6.7-1-9.8-2.4-.5-.2-1-.5-1.4-.8-.7-.5-1-1.2-1-2,0-1,0-2,0-3,0-1,.5-1.4,1.5-1.2.6,0,1.2.4,1.8.6,3.9,1.7,7.9,2.4,12.1,2.2,1.9,0,3.8-.3,5.5-1.2,1.5-.8,2.7-1.9,3.1-3.6.5-2,.1-3.7-1.4-5.2-.7-.6-1.5-1-2.4-1.4-1.8-.8-3.6-1.3-5.5-1.9-1.9-.6-3.9-1.1-5.7-1.9-2-.8-3.8-1.8-5.3-3.4-2.3-2.6-3.4-5.5-3.2-9,.3-3.6,2-6.3,4.9-8.5,2.3-1.8,4.9-2.7,7.8-3.1.6,0,1.2-.2,1.8-.2,0,0,.1,0,.1,0h3.2Z"/>
      <path class="cls-2" d="M64.6,67c.2-.8.4-1.6.6-2.4,1.9-7.9,3.7-15.7,5.6-23.6.5-2.1,1-4.2,1.5-6.3,0-.3.2-.7.3-1,.3-.9,1-1.4,1.9-1.5.3,0,.7,0,1,0,1.5,0,2.9,0,4.4,0,.9,0,1.5.5,1.9,1.4.3.8.5,1.7.6,2.5,1.8,7.8,3.7,15.6,5.5,23.3.6,2.6,1.2,5.2,1.9,7.9,0,0,0-.1.1-.2,2.5-9.8,5.1-19.7,7.6-29.5.3-1.2.6-2.4,1-3.5.5-1.4,1.1-1.8,2.5-1.9,1.6,0,3.2,0,4.8,0,.8,0,1.2.4,1.2,1.2,0,.5-.1,1.1-.3,1.6-2.3,7.5-4.7,15.1-7,22.6-1.7,5.3-3.3,10.6-5,15.9,0,.1,0,.2-.1.4-.4,1.2-1.2,1.8-2.4,1.8-1.7,0-3.4,0-5.1,0-1,0-1.6-.5-1.9-1.4-.3-.8-.4-1.7-.7-2.5-1.9-7.8-3.7-15.6-5.6-23.4-.5-2.1-1-4.3-1.5-6.4,0,0,0-.2-.1-.2-.5,2-.9,3.9-1.4,5.9-1.7,7.2-3.4,14.3-5.1,21.5-.4,1.5-.7,3-1.1,4.5-.4,1.5-1,2-2.6,2-1.5,0-3,0-4.5,0-.3,0-.6,0-1-.1-.6-.1-1-.5-1.3-1-.4-.7-.6-1.5-.8-2.3-3.7-12.3-7.5-24.5-11.2-36.8-.2-.6-.3-1.2-.4-1.7,0-.4,0-.7.2-1,.2-.3.5-.4.8-.4,1.9,0,3.8,0,5.7,0,.8,0,1.4.5,1.7,1.2.5,1.1.7,2.3,1,3.5,2.5,9.7,4.9,19.3,7.4,29,0,.3.2.6.3,1Z"/>
      <path class="cls-2" d="M35.3,70.1c-.2.2-.4.5-.6.7-2.9,3.2-6.4,5.2-10.7,5.9-2.7.4-5.3.4-7.9-.4-4.5-1.4-7.3-4.4-8.3-9-.5-2.4-.5-4.8.2-7.2.7-2.8,2.4-5,4.7-6.7,2.2-1.6,4.7-2.5,7.4-3,2.7-.4,5.4-.3,8.1,0,2.1.2,4.2.7,6.3,1.1.2,0,.3,0,.3-.2,0-1.5,0-2.9,0-4.4,0-1.3-.2-2.7-.6-4-.7-2.3-2.2-3.7-4.5-4.4-1.9-.6-3.9-.7-5.9-.6-3.5.1-6.9,1.1-10.1,2.4-.6.2-1.1.4-1.7.6-.9.2-1.4-.2-1.5-1.1,0-1,0-2,0-2.9,0-.2,0-.4,0-.6,0-.9.6-1.4,1.3-1.7,1.6-.9,3.4-1.5,5.2-2,3.8-1.1,7.6-1.5,11.5-1.2,2.4.2,4.8.6,7,1.6,2.9,1.3,4.9,3.6,6.1,6.6.7,1.9,1.1,3.9,1.2,6,.1,1.8,0,3.6,0,5.5,0,3.9,0,7.8,0,11.8,0,1.5,0,3.1.6,4.6.4,1.3,1,2.5,1.6,3.6.6,1.1.4,1.9-.6,2.6-1,.7-2.1,1.4-3.1,2.1-1.1.7-2,.5-2.9-.4-1.2-1.4-2.1-2.9-2.9-4.6,0-.1-.1-.3-.2-.5ZM25.5,55.8c-1.3,0-3.1.1-4.9.7-2.1.7-3.6,2.1-4.3,4.3-.4,1.4-.4,2.8-.3,4.2.4,2.8,2.4,4.9,5.3,5.3,1.5.2,3,.1,4.5-.2,2.1-.4,4.1-1.2,5.7-2.6,1.4-1.3,2.5-2.7,2.9-4.6.4-1.9.4-3.8.4-5.8,0-.2,0-.2-.2-.2-2.8-.7-5.7-1-9.1-1.1Z"/>
      <path class="cls-1" d="M133.4,91.6c-2.3,0-4.7.2-7,.5-1.4.2-2.7.3-4.1.4-.5,0-.9,0-1.2-.4-.2-.5,0-.9.3-1.2.4-.5,1-.9,1.6-1.2,2.6-1.6,5.5-2.6,8.5-3.1,2.9-.6,5.9-.8,8.9-.6,2,.1,3.9.3,5.8.9.4.1.8.3,1.2.5.6.3.9.8,1,1.4.2,1,.2,2,.1,3-.3,3.9-1.3,7.6-2.9,11.2-1.4,3.3-3.3,6.2-5.9,8.7-.3.3-.7.6-1,.9-.3.3-.7.4-1.1.5-.6,0-1-.3-1-.9,0-.2,0-.5.2-.7,1.3-3.2,2.6-6.4,3.5-9.8.5-1.7,1-3.4,1.2-5.2,0-.7.1-1.5,0-2.2-.1-.9-.6-1.4-1.4-1.8-1-.5-2-.6-3.1-.7-1.2-.1-2.5-.1-3.8-.1Z"/>
    </g>
  </g>
</svg>