<?xml version="1.0" encoding="UTF-8" standalone="no"?>

<svg
   xmlns:svg="http://www.w3.org/2000/svg"
   xmlns="http://www.w3.org/2000/svg"
   version="1.0"
   width="602.36218"
   height="254.44487"
   id="svg2883">
  <defs
     id="defs2885" />
  <g
     transform="translate(-450.31429,-3.7254158)"
     id="layer1">
    <g
       transform="translate(17.716536,17.722143)"
       id="g2937">
      <path
         d="M 456.7412,8.0468936 L 857.23751,9.4834065 L 931.52623,110.75714 L 852.72976,219.20889 L 456.7412,219.68773 L 456.7412,8.0468936 z"
         id="rect2894"
         style="fill:#ffffff;fill-opacity:1" />
      <path
         d="M 498.65238,179.26135 L 498.65238,47.480629 L 518.43666,47.480629 C 558.29577,47.480629 576.46877,67.819606 576.46877,112.55215 C 576.46877,159.46386 559.6561,179.26135 518.97815,179.26135 L 498.65238,179.26135 z M 679.76172,137.23627 L 704.70998,49.105106 L 729.92239,137.23627 L 679.76172,137.23627 z M 461.50073,211.7905 L 520.33848,211.7905 C 582.70254,211.7905 614.14871,178.44251 614.14871,112.55215 C 614.14871,48.022121 582.70254,14.674125 521.69882,14.674125 L 461.50073,14.674125 L 461.50073,211.7905 z M 450.31429,3.7254158 L 858.46736,3.7254158 L 907.74315,71.689294 L 957.01895,3.7254158 L 1017.2434,3.7254158 L 937.8554,113.22571 L 1017.2434,222.726 L 957.01895,222.726 L 907.74315,154.76213 L 858.46736,222.726 L 450.31429,222.726 L 450.31429,3.7254158 z M 876.53471,113.22571 L 805.03132,211.84333 L 854.2807,211.88295 L 925.8105,113.22571 L 854.29391,14.674125 L 805.03132,14.674125 L 876.53471,113.22571 z M 623.08993,211.7905 L 658.33976,211.7905 L 670.80729,168.68244 L 738.86361,168.68244 L 751.067,211.7905 L 788.21865,211.7905 L 728.8394,14.674125 L 682.46918,14.674125 L 623.08993,211.7905"
         id="path2862"
         style="fill:#000199;fill-opacity:1;fill-rule:nonzero;stroke:none" />
    </g>
  </g>
</svg>
