<?xml version="1.0" encoding="UTF-8"?>
<svg xmlns="http://www.w3.org/2000/svg" version="1.1" viewBox="0 0 500 500">
  <defs>
    <style>
      .cls-1 {
        fill: #d5e6f5;
      }

      .cls-2 {
        fill: #fff;
      }

      .cls-3 {
        fill: #82b2fc;
      }

      .cls-4 {
        fill: #71abd9;
      }

      .cls-5 {
        fill: #bfdbf5;
      }

      .cls-6 {
        fill: #214a80;
      }
    </style>
  </defs>
  <!-- Generator: Adobe Illustrator 28.6.0, SVG Export Plug-In . SVG Version: 1.2.0 Build 709)  -->
  <g>
    <g id="Layer_1">
      <path class="cls-5" d="M59.4,325.6h375.4v25.2c0,7-5.7,12.7-12.7,12.7H72.1c-7,0-12.7-5.7-12.7-12.7v-25.2h0Z"/>
      <rect class="cls-4" x="209.3" y="363.5" width="77" height="33.2"/>
      <path class="cls-6" d="M68.3,106.8h357.6c4.9,0,8.9,4,8.9,8.9v210.5H59.4V115.7c0-4.9,4-8.9,8.9-8.9Z"/>
      <rect class="cls-1" x="74.7" y="122.6" width="347.2" height="190"/>
      <path class="cls-2" d="M255.6,342.8c0,4.7-3.8,8.5-8.5,8.5s-8.5-3.8-8.5-8.5,3.8-8.5,8.5-8.5,8.5,3.8,8.5,8.5Z"/>
      <path class="cls-5" d="M319.3,407.8h-144.3c0-6.1,5-11.1,11.1-11.1h122.1c6.1,0,11.1,5,11.1,11.1h0Z"/>
      <g>
        <rect class="cls-2" x="241.5" y="145.8" width="154.3" height="147.7" rx="3.5" ry="3.5"/>
        <rect class="cls-2" x="99.7" y="210.7" width="114.5" height="82.8" rx="3.6" ry="3.6"/>
        <g>
          <g>
            <rect class="cls-1" x="112.7" y="264.3" width="88.3" height="5" rx="1.2" ry="1.2"/>
            <rect class="cls-1" x="112.7" y="276" width="52.4" height="5" rx="1.2" ry="1.2"/>
          </g>
          <circle class="cls-3" cx="125.5" cy="236" r="15.7" transform="translate(-130.1 157.9) rotate(-45)"/>
        </g>
        <g>
          <rect class="cls-2" x="100.6" y="162.7" width="66.8" height="5" rx="1.2" ry="1.2"/>
          <rect class="cls-2" x="100.6" y="193.9" width="92.1" height="5" rx="1.2" ry="1.2"/>
          <rect class="cls-2" x="100.6" y="178.2" width="112.9" height="5" rx="1.2" ry="1.2"/>
        </g>
        <g>
          <rect class="cls-3" x="270.6" y="172.5" width="96.6" height="96.6"/>
          <circle class="cls-5" cx="341.4" cy="214.3" r="14.9"/>
          <polygon class="cls-2" points="322.4 238.8 339.7 218.2 368.4 244.2 368.4 269.1 322.4 269.1 322.4 238.8"/>
          <polygon class="cls-6" points="270.6 238.4 290.1 208.5 352.1 269.1 270.6 269.1 270.6 238.4"/>
        </g>
      </g>
    </g>
  </g>
</svg>