<?xml version="1.0" encoding="UTF-8"?>
<svg xmlns="http://www.w3.org/2000/svg" version="1.1" viewBox="0 0 150 150">
  <defs>
    <style>
      .cls-1 {
        fill: #1183c7;
      }
    </style>
  </defs>
  <!-- Generator: Adobe Illustrator 28.6.0, SVG Export Plug-In . SVG Version: 1.2.0 Build 709)  -->
  <g>
    <g id="Layer_1">
      <g>
        <path class="cls-1" d="M54.1,26.5c-.2.1-.4.3-.6.5-1.6,1.5-3,3.2-4.4,4.8-1.8,2.1-3.4,4.3-5,6.5-.5.7-.9,1.6-1.1,2.4-1.7,5.5-3.3,11-5.2,16.5-.8,2.2-1.8,4.3-3.3,6.2-1.8,2.3-4.1,3.9-6.7,5-2.2.9-4.5,1.5-6.9,1.6-.5,0-.9,0-1.4,0-4.2,0-8.4.1-12.5.1-.2,0-.4,0-.7,0-.4,0-.5-.2-.4-.6.1-.5.2-.9.4-1.4,2.3-8.4,5.4-16.6,9.4-24.4,2.5-5,5.5-9.8,8.9-14.2,1.9-2.4,3.9-4.8,6.1-6.9,2-1.9,4.1-3.5,6.5-4.9,1.7-1,3.5-1.7,5.5-1.9.6,0,1.2-.1,1.7-.1,7.3,0,14.6,0,21.9,0,2.2,0,4.4,0,6.6,0,1.7,0,3.3.3,4.9,1,2.1.9,3.8,2.3,5.2,4.1,1.3,1.7,2.4,3.6,3.2,5.5,1.6,3.5,2.7,7.2,3.7,10.9,1.1,4.2,2,8.4,3.1,12.5.7,2.6,1.4,5.2,2.1,7.8,0,.2.1.4.2.6,0,0,0,.1.2.1,0,0,.1,0,.2-.1,0-.1,0-.2.1-.3,1.1-2.6,1.9-5.2,2.8-7.9,1-3.2,2-6.3,3.1-9.5,1.2-3.6,2.3-7.2,3.5-10.8.7-2.2,1.5-4.3,2.7-6.2,2.3-3.8,5.5-6.3,9.7-7.6,1.5-.5,3.1-.8,4.7-.9,1.8-.2,3.7-.3,5.5-.3,5.4,0,10.8,0,16.2,0,.3,0,.7,0,1,0,.2,0,.2,0,.1.3-.1.2-.2.5-.3.7-5.8,10.5-11.9,20.9-18.1,31.2-2.6,4.3-5.4,8.4-8.5,12.2-1.6,2-3.3,3.9-5.2,5.6-1.4,1.2-2.9,2.3-4.6,3.1-1.7.8-3.4,1.1-5.2,1.1-9.1,0-18.2,0-27.3,0-2.8,0-5.2-1-7.3-2.9-1.7-1.6-3-3.4-4.1-5.4-1.4-2.6-2.4-5.4-3.3-8.2-1.2-3.7-2.1-7.4-3-11.2-1-4.3-2.1-8.7-3.3-13-.1-.4-.2-.8-.3-1.1,0-.2-.1-.4-.3-.6Z"/>
        <path class="cls-1" d="M37.7,104.9c0,0,0,.1,0,.2.2,1.9.2,3.7.2,5.6,0,9.8,0,19.6,0,29.5,0,0,0,0,0,.1,0,.4,0,.4-.4.4-1.3,0-2.7,0-4,0-.4,0-.4,0-.4-.4,0,0,0-.2,0-.2,0-13.5,0-26.9,0-40.4,0-.7,0-.6.7-.7,1.7,0,3.5,0,5.2,0,.4,0,.6.1.8.4,6,9.4,12,18.8,18,28.2,1.3,2,2.5,3.9,3.7,5.9.2.3.4.7.6,1.1,0-.3,0-.4,0-.6-.2-1.7-.2-3.4-.2-5.1,0-9.7,0-19.5,0-29.2,0-.6,0-.6.6-.6,1.3,0,2.6,0,3.9,0,.4,0,.4,0,.4.4,0,.1,0,.2,0,.3,0,13.5,0,26.9,0,40.4,0,.7,0,.6-.7.6-1.6,0-3.2,0-4.8,0-.4,0-.6-.1-.8-.4-4.1-6.4-8.3-12.8-12.5-19.2-2.9-4.5-5.8-9-8.8-13.5-.5-.7-.9-1.5-1.2-2.3,0-.1-.1-.2-.2-.3,0,0,0,0,0,0Z"/>
        <path class="cls-1" d="M75.8,119.9v-20.1c0-.1,0-.2,0-.3,0-.5,0-.5.5-.5,6.7,0,13.5,0,20.2,0,0,0,0,0,0,0q.4,0,.4.4c0,.1,0,.3,0,.4,0,1.1,0,2.1,0,3.2,0,.5,0,.5-.5.5-5,0-10,0-15,0-.2,0-.3,0-.5,0-.2,0-.2,0-.2.2,0,.1,0,.2,0,.3,0,4.2,0,8.5,0,12.7,0,.6,0,.6.6.6,4.7,0,9.3,0,14,0,.6,0,.6,0,.6.5,0,1.1,0,2.2,0,3.4,0,.5,0,.5-.5.5-1,0-2,0-3,0-3.7,0-7.3,0-11,0-.6,0-.6,0-.6.6,0,4.5,0,9,0,13.5s0,0,0,.1c0,.4,0,.4.4.4,2.2,0,4.4,0,6.6,0,3.2,0,6.4,0,9.6,0,.1,0,.2,0,.3,0,.2,0,.3,0,.3.3,0,1.3,0,2.5,0,3.8,0,.3-.1.3-.3.3,0,0-.2,0-.3,0-7,0-13.9,0-20.9,0-.7,0-.6,0-.6-.6,0-6.8,0-13.5,0-20.3Z"/>
        <path class="cls-1" d="M114.6,122.1c0-6,0-11.9,0-17.9s0-.2,0-.2c0-.5,0-.5-.5-.5-3.6,0-7.2,0-10.8,0,0,0-.2,0-.3,0-.5,0-.5,0-.5-.5,0-1.2,0-2.3,0-3.5,0-.5,0-.5.5-.5,1.8,0,3.5,0,5.3,0,7.5,0,15.1,0,22.6,0,.7,0,.6,0,.6.6,0,1.1,0,2.2,0,3.3,0,.6,0,.5-.5.5-2.8,0-5.6,0-8.5,0-.9,0-1.7,0-2.6,0-.5,0-.5,0-.5.5,0,.1,0,.3,0,.4,0,11.9,0,23.9,0,35.8,0,.7,0,.6-.6.6-1.3,0-2.5,0-3.8,0-.6,0-.5,0-.5-.5,0-6,0-12.1,0-18.1Z"/>
        <path class="cls-1" d="M41.1,90.8c0,0,.1-.1.1-.2,1.5-3.8,3.3-7.4,4.9-11,.2-.5.4-.9.6-1.4,0-.2.2-.3.5-.3.6,0,1.1,0,1.7,0,.2,0,.3,0,.3.3,0,0,0,.2,0,.3,0,4.9,0,9.9,0,14.8,0,.6,0,.6-.6.6-.3,0-.7,0-1,0-.3,0-.3,0-.3-.3,0,0,0-.1,0-.2,0-3.4,0-6.8,0-10.2,0-.8,0-1.6,0-2.4,0-.1,0-.3,0-.4-.8,2.2-1.9,4.4-2.8,6.5-1,2.2-1.9,4.3-2.9,6.5,0,.2,0,.4-.3.4-.2,0-.5,0-.8,0-.2,0-.2-.2-.2-.3-.4-.9-.9-1.9-1.3-2.8-1.3-2.9-2.6-5.7-3.9-8.6-.2-.5-.4-1.1-.6-1.6,0,0,0,.2,0,.3.1,2.2,0,4.5,0,6.8,0,2,0,3.9,0,5.9,0,.1,0,.2,0,.3,0,.2,0,.2-.2.2-.5,0-.9,0-1.4,0-.1,0-.2,0-.2-.2,0-.1,0-.2,0-.3,0-4.9,0-9.9,0-14.8s0,0,0,0c0-.6,0-.5.5-.5.5,0,1,0,1.5,0,.4,0,.5,0,.7.4.5,1.1,1,2.2,1.5,3.4,1.1,2.5,2.2,5.1,3.3,7.6.2.5.4,1,.6,1.6Z"/>
        <path class="cls-1" d="M75.8,88.2c0-.9,0-1.8.4-2.6.8-2,2.3-3.1,4.4-3.4.8-.1,1.6,0,2.4,0,1.8.4,3,1.4,3.6,3.1.6,1.7.6,3.4,0,5.1-.7,2-2.5,3.4-4.7,3.5-.7,0-1.5,0-2.2-.2-2-.5-3.2-1.8-3.7-3.8-.2-.6-.2-1.3-.2-1.9ZM77.7,88.1c0,.3,0,.6,0,.8,0,.9.4,1.7,1,2.4.9,1,2,1.3,3.3,1.1,1.4-.1,2.3-.8,2.8-2.1.5-1.5.5-3.1,0-4.6-.4-1.1-1.2-1.7-2.3-2-.4,0-.8-.1-1.2,0-1.5,0-2.5.8-3.1,2.1-.3.7-.4,1.5-.4,2.3Z"/>
        <path class="cls-1" d="M97.9,88.4c0-1.1,0-2,.4-2.8.7-2,2.2-3.1,4.3-3.4.8-.1,1.7-.1,2.5,0,1.8.4,2.9,1.4,3.6,3.1.7,1.8.7,3.7,0,5.4-.8,2-2.4,3.1-4.5,3.2-.9,0-1.8,0-2.6-.3-1.9-.7-3-2.1-3.4-4-.1-.5-.1-1-.1-1.3ZM107.2,88.2c0-.5,0-1-.1-1.4-.3-1.7-1.2-2.7-2.8-3-.3,0-.6,0-.9,0-1.6,0-2.8.9-3.3,2.4-.4,1.3-.5,2.6,0,3.9.2.5.4,1,.8,1.4.9,1,2.1,1.2,3.4,1.1,1.5-.2,2.4-1.1,2.8-2.6.2-.6.2-1.1.2-1.7Z"/>
        <path class="cls-1" d="M117.1,78.5c-.6-.2-1.2-.4-1.7-.2-.5.1-.9.4-1.1.9-.2.4-.3.8-.3,1.2,0,.6,0,1.1,0,1.7,0,.3,0,.3.3.3.6,0,1.3,0,1.9,0,.4,0,.4,0,.4.4,0,.3,0,.6,0,.9,0,.2,0,.3-.3.3-.6,0-1.3,0-1.9,0-.5,0-.5,0-.5.5,0,2.9,0,5.9,0,8.8,0,.1,0,.2,0,.3,0,.2,0,.3-.3.2-.4,0-.9,0-1.3,0-.2,0-.3,0-.3-.3,0-.1,0-.3,0-.4,0-2.8,0-5.7,0-8.5s0-.1,0-.2q0-.5-.5-.5c-.3,0-.7,0-1,0-.4,0-.4,0-.4-.4,0-.3,0-.6,0-.9,0-.2,0-.3.3-.3.4,0,.9,0,1.3,0,.3,0,.3,0,.3-.3,0-.6,0-1.3,0-1.9.1-2.1,1.8-3.5,3.6-3.4.3,0,.7,0,1,0,.2,0,.3.1.3.4,0,.4,0,.8,0,1.3Z"/>
        <path class="cls-1" d="M95.5,84.5c-.6-.3-1.2-.6-1.8-.7-.5,0-1.1-.1-1.6,0-.6.2-1,.6-1.1,1.2-.1.7.1,1.3.7,1.7.5.3.9.5,1.4.7.6.2,1.1.5,1.6.8,1.8,1.2,1.8,3.9,0,5.1-.5.3-1.1.6-1.7.6-1.2.2-2.4.1-3.5-.3-.3-.1-.5-.3-.5-.7,0-.4,0-.9,0-1.4.2,0,.4.2.6.3,1,.6,2.1.8,3.3.6.7-.1,1.1-.5,1.3-1.2.1-.7-.1-1.2-.7-1.6-.5-.4-1.1-.6-1.7-.9-.5-.2-1-.5-1.4-.8-1.6-1-1.7-3.6-.1-4.9,1-.8,2.2-1,3.4-.9.6,0,1.1.2,1.6.4.2,0,.3.2.3.5,0,.5,0,.9,0,1.5Z"/>
        <path class="cls-1" d="M124.3,92.2c0,.4,0,.9,0,1.3,0,.1,0,.2-.2.3-.1,0-.3.1-.4.1-.7.2-1.3.2-2,0-1.2-.2-1.9-1-2.1-2.2,0-.4,0-.7,0-1.1,0-2,0-4,0-6,0-.1,0-.2,0-.3,0-.3-.1-.3-.3-.3-.4,0-.9,0-1.3,0-.2,0-.4,0-.3-.3,0-.3,0-.6,0-.9,0-.2,0-.3.3-.3.4,0,.9,0,1.3,0,.3,0,.3,0,.3-.3,0-.7,0-1.4,0-2.1,0-.2,0-.4.3-.4.4-.1.8-.3,1.3-.4.2,0,.3,0,.3.2,0,.7,0,1.3,0,2,0,.3,0,.5,0,.8,0,.2,0,.3.3.3.5,0,.9,0,1.4,0,.3,0,.5,0,.8,0,.4,0,.4,0,.4.4,0,.3,0,.6,0,.9,0,.2,0,.3-.3.3-.7,0-1.3,0-2,0-.1,0-.2,0-.3,0-.2,0-.2,0-.2.2,0,0,0,.2,0,.3,0,2,0,3.9,0,5.9,0,.2,0,.4,0,.6,0,1,.6,1.6,1.9,1.5.3,0,.6-.2.9-.2Z"/>
        <path class="cls-1" d="M66.4,84.6c-.6-.3-1.1-.6-1.6-.7-2.4-.6-4.5.7-5,3.1-.2.9-.2,1.9,0,2.8.5,1.9,2.1,3,4.2,2.7.7,0,1.3-.3,1.9-.7,0,0,.2-.2.3-.1,0,.5,0,1,0,1.4,0,.2-.1.3-.3.3-.5.3-1.1.5-1.7.5-1,.1-2.1.1-3.1-.2-1.9-.7-3-2.1-3.4-4.1-.3-1.3-.2-2.7.3-3.9.8-2.1,2.3-3.3,4.6-3.5,1.1-.1,2.1,0,3.1.3.4.2.4.2.5.6,0,.4,0,.9,0,1.4Z"/>
        <path class="cls-1" d="M25.8,138.1c0,1.6-1.3,3.3-3.3,3.3-1.8,0-3.2-1.4-3.2-3.3,0-1.8,1.4-3.3,3.2-3.3,1.9,0,3.4,1.7,3.3,3.3Z"/>
        <path class="cls-1" d="M70.9,84.6c.2-.2.2-.3.3-.5.5-.9,1.2-1.6,2.2-1.8.4,0,.9,0,1.3,0,.2,0,.3.1.3.3,0,.5,0,1,0,1.5-.1.1-.2,0-.3,0-1.3-.5-2.4,0-3.1,1.1-.4.7-.6,1.5-.6,2.4,0,1.8,0,3.6,0,5.4,0,0,0,.2,0,.3,0,.5,0,.5-.5.5-.4,0-.7,0-1.1,0-.2,0-.3,0-.3-.3,0,0,0-.2,0-.2,0-3.5,0-6.9,0-10.4,0-.6,0-.5.5-.5.3,0,.7,0,1,0,.3,0,.3,0,.3.3,0,.6,0,1.2,0,1.8Z"/>
        <path class="cls-1" d="M55,88.1c0,1.7,0,3.4,0,5.1,0,.1,0,.2,0,.3,0,.2,0,.2-.2.2-.5,0-.9,0-1.4,0-.2,0-.2,0-.2-.2,0,0,0-.2,0-.3,0-3.4,0-6.9,0-10.3,0-.6,0-.5.5-.5.3,0,.6,0,.9,0,.4,0,.4,0,.4.4,0,1,0,2,0,3.1,0,.8,0,1.5,0,2.3Z"/>
        <path class="cls-1" d="M55.3,78.3c0,.7-.6,1.2-1.2,1.2-.7,0-1.2-.5-1.2-1.2,0-.7.5-1.2,1.2-1.2.7,0,1.2.5,1.2,1.2Z"/>
      </g>
    </g>
  </g>
</svg>