<?xml version="1.0" encoding="UTF-8"?>
<svg xmlns="http://www.w3.org/2000/svg" version="1.1" viewBox="0 0 500 500">
  <!-- Generator: Adobe Illustrator 28.6.0, SVG Export Plug-In . SVG Version: 1.2.0 Build 709)  -->
  <g>
    <g id="OBJECTS">
      <g>
        <path d="M213,247.9c-.4-11.6-.7-23.1-1.1-34.7-.5-14.7-.9-29.3-1.4-44-.4-11.4-.7-22.8-1.1-34.3-.6-17.6-1.1-35.3-1.7-52.9-.2-6.6-.5-13.2-.6-19.8-.1-7.8,1.4-15.2,5-22.2,4.4-8.5,11.4-13.7,20.6-15.8,5.7-1.3,11.4-1.4,17.2-.7,7.6.9,15.2,1.9,22.8,2.9,8.4,1.1,16.7,2.3,25.1,3.5,7.5,1.1,15,2.1,22.5,3.2,6.7,1,13.4,2,20.1,2.9,6.7,1,13.3,1.9,20,2.9,7.3,1.1,14.5,2.2,21.8,3.2,7.2,1.1,14.3,2.1,21.5,3.2,2.1.3,4.1,1,6.1,1.9,14.8,6.6,23.9,17.7,26.7,33.7.4,2.6.6,5.3.8,7.9.5,8.1.9,16.2,1.3,24.3.3,5.1.6,10.2.9,15.3.4,7,.9,14.1,1.3,21.1.3,4.9.6,9.8.9,14.7.4,6.7.9,13.3,1.3,20,.3,4.7.6,9.5.9,14.2.4,6.8.9,13.5,1.3,20.3.3,4.8.6,9.6.9,14.5.4,6.4.9,12.9,1.3,19.3.3,4.7.6,9.5.9,14.2.4,6.5.9,13,1.3,19.5.3,4.6.6,9.2.9,13.8.4,6.6.9,13.2,1.3,19.7.4,6.1.8,12.2,1.2,18.4.4,6.3.9,12.6,1.3,18.9.3,4.6.6,9.3.9,13.9.4,6.3.9,12.7,1.3,19,.3,5.1.8,10.3.9,15.4,0,2.6-.4,5.3-.9,7.9-1.2,6.6-3.4,12.9-6.9,18.7-5.2,8.4-12.4,14.1-22.2,16.2-3.9.8-7.9,1.4-11.8,2.1-8.3,1.4-16.7,2.9-25,4.3-8.3,1.4-16.7,2.9-25,4.3-8.8,1.5-17.7,3-26.5,4.6-8.9,1.5-17.8,3.1-26.8,4.6-8.9,1.5-17.7,3.1-26.6,4.6-7,1.2-14.1,2.6-21.1,3.6-8.5,1.2-16.9.2-24.8-3.3-9.2-4-15.1-11.1-18.3-20.4-1.7-4.8-2.5-9.8-2.8-14.9-.2-5.2-.4-10.4-.5-15.6-.5-16.9-1-33.9-1.5-50.8-.4-11.6-.7-23.2-1.1-34.8-.6-17.8-1.1-35.7-1.7-53.5-.4-11.7-.8-23.4-1.1-35.1ZM242,239.5c.3,8,.6,16.1.9,24.1.3,9.2.6,18.4.9,27.6.5,13.7.9,27.5,1.4,41.2.2,5.3.3,10.6.5,15.9.2,4.8,1.1,9.5,2.8,14,2.5,6.8,6.6,12.2,13,15.8,6.5,3.6,13.5,4.5,20.8,3.7,4.9-.6,9.9-1,14.8-1.6,4.9-.5,9.8-1,14.7-1.5,5.8-.6,11.6-1.2,17.5-1.8,5.8-.6,11.6-1.2,17.5-1.8,5.8-.6,11.6-1.2,17.5-1.8,5.8-.6,11.6-1.2,17.5-1.8,5.8-.6,11.6-1.2,17.5-1.8,6.7-.7,13.1-2.6,18.9-6.3,9.9-6.4,14.5-15.5,13.9-27.2-.4-7-.9-14-1.3-21-.3-5-.6-10-.9-15-.4-7-.9-14-1.3-21-.3-5.1-.6-10.2-.9-15.3-.4-7.1-.9-14.3-1.3-21.4-.3-5.1-.6-10.3-.9-15.4-.5-8.7-1.1-17.3-1.6-26-.3-5.6-.6-11.1-.9-16.7-.5-9.9-1.1-19.8-1.6-29.8-.2-4.2-.3-8.5-.8-12.6-.9-7.1-3.7-13.4-8.7-18.6-5.7-5.8-12.4-9.8-20.9-9.9-5.2,0-10.5-.7-15.7-1.1-5.7-.4-11.3-.9-17-1.3-5.4-.4-10.7-.8-16.1-1.2-5.6-.4-11.1-.9-16.7-1.3-5.5-.4-11-.8-16.5-1.2-6.8-.5-13.5-1-20.3-1.6-5.7-.4-11.3-.8-17-1.3-4.1-.3-8.2-.2-12.2.7-5.9,1.2-11,3.9-14.8,8.7-4.7,5.9-6.5,12.8-6.3,20.2.3,10.4.8,20.7,1.2,31.1.5,12.4.9,24.8,1.4,37.2.5,12.4.9,24.9,1.4,37.3Z"/>
        <path d="M196,72c.7,20.3,1.3,40.6,2,61-.5,0-.9,0-1.3,0-4.1-.3-8.2-.6-12.4-1-4.4-.3-8.9-.7-13.3-1-3.6-.3-7.1-.6-10.7-.3-4.4.4-8.6,1.5-12.3,4-5.1,3.4-7.9,8.4-9,14.3-.4,2.1-.6,4.3-.5,6.5.3,18.3.7,36.6,1.1,54.9.4,18,.7,35.9,1.1,53.9.4,18.5.7,37,1.1,55.4,0,3.9.2,7.7.5,11.5.3,3.5,1.2,7,2.6,10.2,3.4,7.9,9.5,12.5,17.8,14.4,3.7.8,7.4.9,11.1.5,5.5-.6,10.9-1.1,16.4-1.6,4.3-.4,8.7-.9,13-1.3.6,0,1.1,0,1.9-.1.7,23.7,1.5,47.3,2.2,71-1.4.2-2.7.4-4,.6-9.8,1.2-19.6,2.5-29.4,3.7-4.6.6-9.2,1.3-13.8,1.7-7.6.7-15-.1-22.1-3.3-8.1-3.7-13.2-10-15.7-18.5-1.1-3.8-1.5-7.7-1.6-11.7-.5-24.2-1-48.5-1.5-72.7-.4-19.2-.7-38.4-1.1-57.5-.4-19.7-.8-39.5-1.1-59.2-.4-19.9-.7-39.8-1.1-59.8-.3-15.1-.6-30.3-.8-45.4,0-2.7-.1-5.4,0-8.1.4-5.2,1.9-10,4.6-14.5,3.8-6.1,9.3-9.7,16.1-11.5,5.1-1.3,10.3-1.5,15.5-1,8.5.8,16.9,1.8,25.4,2.7,6.4.7,12.8,1.3,19.4,2Z"/>
        <path d="M107.6,321.2c.3,16.8.7,33.4,1,50.2-1.1.1-2,.3-3,.4-9.5,1-18.9,2-28.4,3-5.5.6-10.9.3-16.1-1.6-8-2.8-12.6-8.6-13.9-16.9-.4-2.2-.5-4.5-.5-6.8-.2-7.6-.4-15.2-.5-22.8-.5-23.2-1-46.3-1.4-69.5-.5-22.2-.9-44.5-1.3-66.7-.2-11.5-.4-23-.7-34.6,0-4.9-.2-9.8-.3-14.8,0-3.4.5-6.8,1.8-9.9,2.7-6.5,7.7-10.1,14.5-11.6,3.8-.8,7.7-.8,11.5-.4,5.5.5,11,1,16.5,1.5,5.5.5,11,.9,16.5,1.4.1,0,.3,0,.6.1.3,14.2.5,28.4.8,42.8-.4,0-.7,0-1,0-7.4-.5-14.7-.9-22.1-1.4-3.8-.2-7.6,0-11.3,1.3-5.7,2.1-8.9,6.3-9.9,12.2-.2,1.3-.3,2.7-.3,4,.5,23,1,46,1.5,69,.3,12.4.5,24.9.8,37.3.1,5.5.3,11.1.5,16.6.1,2.9.9,5.7,2.1,8.3,2.8,5.8,7.6,9,13.8,10.1,1.9.3,3.9.4,5.8.3,6.3-.4,12.5-.9,18.8-1.3,1.4,0,2.8-.2,4.3-.2Z"/>
        <path d="M200.2,342.2c-.4,0-.8.2-1.1.2-5.7.7-11.4,1.5-17.1,2.1-5.1.6-10.2.7-15.3-.4-1.3-.3-2.6-.7-3.8-1.2-5.3-2.3-8.1-6.6-9.1-12.1-.3-1.8-.5-3.7-.5-5.5,0-2.5,0-4.9,0-7.5,1.5-.1,2.9-.2,4.4-.4,3.7-.3,7.5-.4,11.2-1.4,3.5-1,6.8-2.4,9.6-4.9,3.8-3.4,5.7-7.7,5.6-12.8,0-.6,0-1.2,0-1.8,0-28.9-.1-57.8-.2-86.7,0-7.3-.3-14.6-.4-21.9-.1-10.6-7.1-16.5-14.4-18.9-.8-.3-1.7-.4-2.6-.5-5.2-.3-10.4-.6-15.6-.9-.2,0-.4,0-.7-.1,0-.2-.1-.4-.1-.6-.2-4-.4-8-.4-12,0-1.7.4-3.5.8-5.2.8-3.4,3-5.8,6.3-7.1,2.1-.8,4.3-1.3,6.5-1.5,4.4-.4,8.8-.2,13.2.4,5.4.7,10.8,1.5,16.1,2.3.7,0,1.4.1,2.1.2.8,2.3,1.1,4.6,1.2,6.9.4,12.3.9,24.5,1.2,36.8.4,18.4.8,36.8,1.1,55.2.2,7.6.3,15.2.6,22.8.3,9.4.8,18.7,1.2,28.1.6,14.1,1,28.2.6,42.3,0,1.9-.2,3.9-.3,5.9Z"/>
        <path d="M315.4,119.1c.2,3.6.4,7.1.5,10.6.5,11.6,1,23.3,1.5,34.9.5,10.3.9,20.5,1.4,30.8.6,12.4,1.1,24.9,1.7,37.3.5,10.3.9,20.5,1.4,30.8.6,12.3,1.1,24.7,1.7,37,.5,10.3.9,20.6,1.4,30.9.5,10.3.9,20.5,1.4,30.8,0,1.2.1,2.3.2,3.6-1.1.2-2.1.3-3.1.4-5.8.9-11.6,1.8-17.3,2.7-7.5,1.2-15,2.1-22.6,1.8-3.9-.1-7.8-.7-11.5-1.9-7.9-2.6-12.6-8.1-14.3-16.2-.2-1-.4-2-.5-3,0-.3,0-.6,0-1.1.7,0,1.4-.2,2.1-.3,6.2-.6,12.5-1,18.7-1.8,7.7-1,14.9-3.4,20.5-9.1,4.7-4.7,7-10.4,6.8-17.1-.2-7.6-.7-15.1-1-22.7-.2-4.7-.4-9.4-.6-14.1-.4-10-.9-20-1.3-30.1-.3-6.9-.6-13.8-.9-20.7-.4-10-.9-20-1.3-29.9-.2-4.8-.4-9.7-.6-14.5-.3-7.4-.5-14.9-.9-22.3-.8-14.9-10.4-22.6-20-25.7-1-.3-2.2-.4-3.3-.5-5.8-.5-11.7-1-17.5-1.5-2.3-.2-4.5-.4-6.8-.6-.5,0-.9-.1-1.5-.2,0-1.1-.2-2.2,0-3.3.2-2.3.2-4.6.7-6.8,1.4-6.5,5.8-10.4,12.3-11.4,3-.4,5.9-.4,8.9-.2,6,.4,12,.9,18.1,1.3,5.5.4,10.9.8,16.4,1.3,2.8.2,5.6.4,8.3.6.4,0,.7,0,1.2.1Z"/>
      </g>
    </g>
  </g>
</svg>