<svg width='24' height='24' viewBox='0 0 24 24' xmlns='http://www.w3.org/2000/svg' xmlns:xlink='http://www.w3.org/1999/xlink'><rect width='24' height='24' stroke='none' fill='#000000' opacity='0'/>


<g transform="matrix(1.25 0 0 1.25 12 12)" >
<g style="" >
<g transform="matrix(1 0 0 1 -1.5 0.5)" >
<path style="stroke: none; stroke-width: 1; stroke-dasharray: none; stroke-linecap: butt; stroke-dashoffset: 0; stroke-linejoin: miter; stroke-miterlimit: 4; fill: rgb(166,90,157); fill-rule: nonzero; opacity: 1;" transform=" translate(-6.5, -8.5)" d="M 12.316 7.998 L 6.862 1.667 C 6.67 1.444 6.334 1.444 6.143 1.667 L 0.684 7.998 C 0.43900000000000006 8.283 0.43900000000000006 8.713000000000001 0.684 8.997 L 6.142 15.333 C 6.3340000000000005 15.556000000000001 6.67 15.556000000000001 6.862 15.333 L 12.317 8.997 C 12.561 8.713 12.561 8.283 12.316 7.998 z" stroke-linecap="round" />
</g>
<g transform="matrix(1 0 0 1 -1.5 0.5)" >
<path style="stroke: none; stroke-width: 1; stroke-dasharray: none; stroke-linecap: butt; stroke-dashoffset: 0; stroke-linejoin: miter; stroke-miterlimit: 4; fill: rgb(117,50,113); fill-rule: nonzero; opacity: 1;" transform=" translate(-6.5, -8.5)" d="M 6.502 16 C 6.218999999999999 16 5.949999999999999 15.876 5.763 15.659 L 0.305 9.323 C -0.10000000000000003 8.853 -0.10000000000000003 8.143 0.305 7.672000000000001 L 5.764 1.34 C 5.949 1.125 6.218 1 6.501 1 C 6.501 1 6.501 1 6.502000000000001 1 C 6.785000000000001 1 7.054 1.125 7.2410000000000005 1.341 L 12.696000000000002 7.672000000000001 C 12.696000000000002 7.672000000000001 12.697000000000001 7.672000000000001 12.697000000000001 7.673000000000001 C 13.099 8.143 13.100000000000001 8.852 12.698 9.322000000000001 L 7.2410000000000005 15.659 C 7.054 15.876 6.785 16 6.502 16 z M 6.483 1.993 L 1.0629999999999997 8.325 C 0.9799999999999998 8.421999999999999 0.9789999999999998 8.574 1.0629999999999997 8.671 L 6.521 15.007 L 11.937999999999999 8.671 C 12.02 8.575 12.02 8.421 11.935999999999998 8.322999999999999 L 6.483 1.993 z" stroke-linecap="round" />
</g>
<g transform="matrix(1 0 0 1 2.88 0.5)" >
<path style="stroke: none; stroke-width: 1; stroke-dasharray: none; stroke-linecap: butt; stroke-dashoffset: 0; stroke-linejoin: miter; stroke-miterlimit: 4; fill: rgb(255,146,190); fill-rule: nonzero; opacity: 1;" transform=" translate(-10.88, -8.5)" d="M 15.316 7.998 L 9.862 1.667 C 9.673 1.447 9.332 1.447 9.143 1.667 L 6.251 5.021 L 8.816 7.9990000000000006 C 9.063 8.286000000000001 9.063 8.711 8.816 8.998000000000001 L 6.251000000000001 11.978000000000002 L 9.142000000000001 15.334000000000001 C 9.331000000000001 15.554000000000002 9.672 15.554000000000002 9.862000000000002 15.334000000000001 L 15.317000000000002 8.998000000000001 C 15.563 8.71 15.563 8.285 15.316 7.998 z" stroke-linecap="round" />
</g>
<g transform="matrix(1 0 0 1 2.88 0.51)" >
<path style="stroke: none; stroke-width: 1; stroke-dasharray: none; stroke-linecap: butt; stroke-dashoffset: 0; stroke-linejoin: miter; stroke-miterlimit: 4; fill: rgb(234,76,137); fill-rule: nonzero; opacity: 1;" transform=" translate(-10.88, -8.51)" d="M 9.502 15.999 C 9.501000000000001 15.999 9.501000000000001 15.999 9.5 15.999 C 9.217 15.998000000000001 8.948 15.875 8.763 15.66 L 5.872 12.304 C 5.71 12.116 5.71 11.839 5.872 11.652000000000001 L 8.437 8.673000000000002 C 8.524 8.572000000000001 8.524 8.427000000000001 8.437 8.327000000000002 L 5.872 5.347 C 5.71 5.159000000000001 5.71 4.882000000000001 5.872 4.694000000000001 L 8.764 1.34 C 9.133999999999999 0.909 9.87 0.9100000000000001 10.241999999999999 1.34 L 15.695999999999998 7.671 L 15.695999999999998 7.671 C 16.107 8.149000000000001 16.107999999999997 8.842 15.697999999999999 9.322000000000001 L 10.241999999999997 15.659 C 10.055 15.876 9.785 15.999 9.502 15.999 z M 6.911 11.978 L 9.520999999999999 15.008 L 14.939 8.671999999999999 C 15.025 8.572 15.025 8.424999999999999 14.938 8.323999999999998 L 9.483 1.993 L 6.909 5.019 L 9.193999999999999 7.673 C 9.6 8.144 9.6 8.854 9.193999999999999 9.324 L 6.911 11.978 z" stroke-linecap="round" />
</g>
<g transform="matrix(1 0 0 1 4.75 0.5)" >
<path style="stroke: none; stroke-width: 1; stroke-dasharray: none; stroke-linecap: butt; stroke-dashoffset: 0; stroke-linejoin: miter; stroke-miterlimit: 4; fill: rgb(255,181,210); fill-rule: nonzero; opacity: 1;" transform=" translate(-12.75, -8.5)" d="M 10.184 8.997 L 12.390999999999998 11.559 C 12.579999999999998 11.779 12.920999999999998 11.779 13.110999999999999 11.559 L 15.316999999999998 8.997 C 15.563999999999998 8.709999999999999 15.563999999999998 8.285 15.316999999999998 7.998 L 13.110999999999999 5.438000000000001 C 12.921999999999999 5.218000000000001 12.581 5.218000000000001 12.392 5.438000000000001 L 10.184999999999999 7.998000000000001 C 9.937 8.285 9.936 8.71 10.184 8.997 z" stroke-linecap="round" />
</g>
<g transform="matrix(1 0 0 1 4.75 0.51)" >
<path style="stroke: none; stroke-width: 1; stroke-dasharray: none; stroke-linecap: butt; stroke-dashoffset: 0; stroke-linejoin: miter; stroke-miterlimit: 4; fill: rgb(234,76,137); fill-rule: nonzero; opacity: 1;" transform=" translate(-12.75, -8.51)" d="M 12.751 12.225 C 12.75 12.225 12.75 12.225 12.748999999999999 12.225 C 12.466 12.224 12.195999999999998 12.1 12.011 11.884 L 9.805 9.323 C 9.398 8.853 9.399 8.143 9.807 7.671 L 12.013 5.111000000000001 C 12.384 4.680000000000001 13.119 4.681000000000001 13.491 5.111000000000001 L 15.697 7.671000000000001 C 16.108999999999998 8.15 16.108999999999998 8.844000000000001 15.697 9.322000000000001 L 13.491 11.884 C 13.304 12.101 13.034 12.225 12.751 12.225 z M 12.732 5.764 L 10.562999999999999 8.325 C 10.475999999999999 8.426 10.475 8.571 10.560999999999998 8.671 C 10.561999999999998 8.671 10.561999999999998 8.671 10.561999999999998 8.671 L 12.768999999999998 11.232999999999999 L 14.937999999999999 8.671 C 15.023 8.572 15.023 8.423 14.937999999999999 8.324 L 12.732 5.764 z" stroke-linecap="round" />
</g>
</g>
</g>
</svg>