<?xml version="1.0" encoding="UTF-8"?>
<svg xmlns="http://www.w3.org/2000/svg" version="1.1" viewBox="0 0 500 500">
  <defs>
    <style>
      .cls-1 {
        fill: #73cbfd;
      }
    </style>
  </defs>
  <!-- Generator: Adobe Illustrator 28.6.0, SVG Export Plug-In . SVG Version: 1.2.0 Build 709)  -->
  <g>
    <g id="OBJECTS">
      <g>
        <path class="cls-1" d="M477.5,248.5c0-30.1-37.7-58.7-95.6-76.4,13.4-59,7.4-105.9-18.7-120.9-6-3.5-13.1-5.2-20.8-5.2v20.7c4.3,0,7.7.8,10.6,2.4,12.6,7.2,18.1,34.8,13.8,70.2-1,8.7-2.7,17.9-4.7,27.3-18.2-4.5-38-7.9-58.9-10.1-12.5-17.2-25.5-32.7-38.6-46.4,30.2-28.1,58.6-43.5,77.9-43.5v-20.7c-25.5,0-58.9,18.2-92.6,49.7-33.8-31.3-67.1-49.3-92.6-49.3v20.7c19.2,0,47.7,15.3,77.9,43.2-13,13.6-26,29.1-38.3,46.3-21,2.2-40.8,5.7-59,10.2-2.1-9.3-3.7-18.3-4.8-26.9-4.4-35.4,1-63,13.5-70.3,2.8-1.7,6.4-2.4,10.7-2.4v-20.7c-7.8,0-14.8,1.7-21,5.2-26.1,15-31.9,61.9-18.5,120.7-57.7,17.8-95.2,46.3-95.2,76.3s37.7,58.7,95.6,76.4c-13.4,59-7.4,105.9,18.7,120.9,6,3.5,13.1,5.2,20.9,5.2,25.5,0,58.9-18.2,92.6-49.7,33.8,31.3,67.1,49.3,92.6,49.3s14.8-1.7,21-5.2c26.1-15,31.9-61.9,18.5-120.7,57.5-17.7,95.1-46.3,95.1-76.3h0ZM356.7,186.7c-3.4,12-7.7,24.3-12.5,36.6-3.8-7.4-7.8-14.8-12.1-22.3-4.3-7.4-8.8-14.7-13.4-21.7,13.2,1.9,25.9,4.4,38,7.3h0ZM314.3,285.4c-7.2,12.5-14.7,24.4-22.4,35.4-13.8,1.2-27.8,1.9-41.9,1.9s-28-.6-41.7-1.8c-7.7-11-15.2-22.8-22.4-35.2-7-12.1-13.4-24.5-19.3-36.9,5.8-12.4,12.2-24.9,19.2-37,7.2-12.5,14.7-24.4,22.4-35.4,13.8-1.2,27.8-1.9,41.9-1.9s28,.6,41.7,1.8c7.7,11,15.2,22.8,22.4,35.2,7,12.1,13.4,24.5,19.3,36.9-5.8,12.4-12.2,24.9-19.2,37h0ZM344.2,273.4c5,12.4,9.3,24.9,12.8,36.9-12.1,3-24.9,5.5-38.2,7.4,4.5-7.1,9.1-14.5,13.4-22,4.3-7.4,8.3-14.9,12.1-22.4h0ZM250.2,372.3c-8.6-8.9-17.3-18.8-25.8-29.7,8.3.4,16.9.6,25.5.6s17.3-.2,25.8-.6c-8.3,10.9-17,20.8-25.5,29.7ZM181.2,317.7c-13.2-1.9-25.9-4.4-38-7.3,3.4-12,7.7-24.3,12.5-36.6,3.8,7.4,7.8,14.8,12.1,22.3s8.8,14.7,13.4,21.7ZM249.7,124.7c8.6,8.9,17.3,18.8,25.8,29.7-8.3-.4-16.9-.6-25.5-.6s-17.3.2-25.8.6c8.3-10.9,17-20.8,25.5-29.7ZM181.1,179.3c-4.5,7.1-9.1,14.5-13.4,22-4.3,7.4-8.3,14.8-12.1,22.3-5-12.4-9.3-24.9-12.8-36.9,12.1-2.9,24.9-5.4,38.2-7.3h0ZM97.2,295.4c-32.8-14-54.1-32.4-54.1-46.9s21.2-33,54.1-46.9c8-3.4,16.7-6.5,25.7-9.4,5.3,18.2,12.2,37.1,20.9,56.5-8.5,19.3-15.4,38.1-20.6,56.2-9.2-2.9-17.9-6-26-9.5h0ZM147.1,428c-12.6-7.2-18.1-34.8-13.8-70.2,1-8.7,2.7-17.9,4.7-27.3,18.2,4.5,38,7.9,58.9,10.1,12.5,17.2,25.5,32.7,38.6,46.4-30.2,28.1-58.6,43.5-77.9,43.5-4.2,0-7.7-.9-10.5-2.5h0ZM367,357.3c4.4,35.4-1,63-13.5,70.3-2.8,1.7-6.4,2.4-10.7,2.4-19.2,0-47.7-15.3-77.9-43.2,13-13.6,26-29.1,38.3-46.3,21-2.2,40.8-5.7,59-10.2,2.1,9.4,3.8,18.4,4.8,27ZM402.7,295.4c-8,3.4-16.7,6.5-25.7,9.4-5.3-18.2-12.2-37.1-20.9-56.5,8.5-19.3,15.4-38.1,20.6-56.2,9.2,2.9,17.9,6,26.1,9.5,32.8,14,54.1,32.4,54.1,46.9,0,14.6-21.3,33-54.2,46.9h0Z"/>
        <circle class="cls-1" cx="249.9" cy="248.5" r="42.4"/>
      </g>
    </g>
  </g>
</svg>