<?xml version="1.0" encoding="UTF-8"?>
<svg xmlns="http://www.w3.org/2000/svg" version="1.1" viewBox="0 0 500 500">
  <defs>
    <style>
      .cls-1 {
        fill: #73cbfd;
      }
    </style>
  </defs>
  <!-- Generator: Adobe Illustrator 28.6.0, SVG Export Plug-In . SVG Version: 1.2.0 Build 709)  -->
  <g>
    <g id="OBJECTS">
      <g>
        <path class="cls-1" d="M456.4,218.3c0-27.4-34.3-53.3-86.8-69.4,12.1-53.5,6.7-96.1-17-109.8-5.5-3.2-11.9-4.7-18.9-4.7v18.8c3.9,0,7,.8,9.6,2.2,11.4,6.6,16.4,31.6,12.5,63.7-.9,7.9-2.4,16.2-4.3,24.8-16.5-4-34.5-7.2-53.5-9.2-11.4-15.6-23.2-29.7-35-42.1,27.4-25.5,53.2-39.5,70.7-39.5v-18.8c-23.2,0-53.5,16.5-84.1,45.1-30.6-28.5-61-44.8-84.1-44.8v18.8c17.4,0,43.3,13.9,70.7,39.2-11.8,12.4-23.6,26.4-34.8,42-19,2-37,5.1-53.5,9.3-1.9-8.4-3.4-16.6-4.4-24.4-4-32.2.9-57.2,12.3-63.8,2.5-1.5,5.8-2.2,9.7-2.2v-18.8c-7.1,0-13.5,1.5-19,4.7-23.7,13.6-29,56.2-16.8,109.5-52.4,16.2-86.5,42-86.5,69.3s34.3,53.3,86.8,69.4c-12.1,53.5-6.7,96.1,17,109.8,5.5,3.2,11.9,4.7,18.9,4.7,23.2,0,53.5-16.5,84.1-45.1,30.6,28.5,61,44.8,84.1,44.8s13.5-1.5,19-4.7c23.7-13.6,29-56.2,16.8-109.5,52.2-16.1,86.3-42,86.3-69.3h0ZM346.8,162.1c-3.1,10.9-7,22.1-11.4,33.3-3.5-6.7-7.1-13.5-11-20.2-3.9-6.7-8-13.3-12.1-19.7,12,1.8,23.5,4,34.5,6.7h0ZM308.2,251.8c-6.6,11.4-13.3,22.1-20.3,32.2-12.5,1.1-25.3,1.7-38.1,1.7s-25.4-.6-37.9-1.6c-7-10-13.8-20.7-20.4-32-6.4-11-12.2-22.2-17.5-33.5,5.2-11.3,11.1-22.6,17.4-33.6,6.6-11.4,13.3-22.1,20.3-32.2,12.5-1.1,25.3-1.7,38.1-1.7s25.4.6,37.9,1.6c7,10,13.8,20.7,20.4,32,6.4,11,12.2,22.2,17.5,33.5-5.3,11.3-11.1,22.6-17.4,33.6h0ZM335.4,240.8c4.5,11.3,8.4,22.6,11.6,33.5-11,2.7-22.6,5-34.7,6.7,4.1-6.5,8.3-13.1,12.1-20,3.9-6.7,7.5-13.6,10.9-20.3h0ZM250,330.7c-7.8-8.1-15.7-17.1-23.4-26.9,7.6.3,15.3.6,23.2.6s15.7-.2,23.4-.6c-7.6,9.8-15.4,18.9-23.2,26.9ZM187.4,281.1c-12-1.8-23.5-4-34.5-6.7,3.1-10.9,7-22.1,11.4-33.3,3.5,6.7,7.1,13.5,11,20.2s8,13.3,12.1,19.7ZM249.6,105.9c7.8,8.1,15.7,17.1,23.4,26.9-7.6-.3-15.3-.6-23.2-.6s-15.7.2-23.4.6c7.6-9.8,15.4-18.9,23.2-26.9ZM187.3,155.5c-4.1,6.5-8.3,13.1-12.1,20-3.9,6.7-7.5,13.5-10.9,20.2-4.5-11.3-8.4-22.6-11.6-33.5,11-2.6,22.6-4.9,34.7-6.7h0ZM111.1,260.9c-29.8-12.7-49.1-29.4-49.1-42.6s19.3-30,49.1-42.6c7.2-3.1,15.2-5.9,23.3-8.5,4.8,16.5,11.1,33.7,18.9,51.3-7.7,17.5-14,34.6-18.7,51-8.3-2.6-16.2-5.5-23.6-8.6h0ZM156.4,381.2c-11.4-6.6-16.4-31.6-12.5-63.7.9-7.9,2.4-16.2,4.3-24.8,16.5,4,34.5,7.2,53.5,9.2,11.4,15.6,23.2,29.7,35,42.1-27.4,25.5-53.2,39.5-70.7,39.5-3.8,0-7-.8-9.5-2.3h0ZM356.1,317c4,32.2-.9,57.2-12.3,63.8-2.5,1.5-5.8,2.2-9.7,2.2-17.4,0-43.3-13.9-70.7-39.2,11.8-12.4,23.6-26.4,34.8-42,19-2,37-5.1,53.5-9.3,1.9,8.5,3.5,16.7,4.4,24.5ZM388.5,260.9c-7.2,3.1-15.2,5.9-23.3,8.5-4.8-16.5-11.1-33.7-18.9-51.3,7.7-17.5,14-34.6,18.7-51,8.3,2.6,16.2,5.5,23.7,8.6,29.8,12.7,49.1,29.4,49.1,42.6,0,13.2-19.4,30-49.2,42.6h0Z"/>
        <circle class="cls-1" cx="249.8" cy="218.3" r="38.5"/>
      </g>
      <g>
        <path class="cls-1" d="M43.1,472.9l-13.2-21.2h-6.1v21.2h-8.6v-53h18.7c6.1,0,10.6,1.5,13.8,4.4,3.1,3,4.7,6.9,4.7,11.7s-1.2,7.6-3.5,10.2c-2.3,2.7-5.7,4.4-10.1,5.1l13.9,21.5h-9.6ZM23.8,445.6h9.5c6.9,0,10.4-3.1,10.4-9.2s-.8-5.2-2.5-6.8c-1.7-1.6-4.3-2.4-7.8-2.4h-9.5v18.4Z"/>
        <path class="cls-1" d="M98.3,453.9h-31.8c.2,4.3,1.3,7.4,3.5,9.5,2.2,2.1,4.9,3.1,8.2,3.1s5.3-.7,7.2-2.2c2-1.5,3.2-3.4,3.6-5.8h9.2c-.6,2.9-1.7,5.5-3.5,7.7-1.8,2.3-4,4-6.8,5.3-2.8,1.3-5.9,1.9-9.4,1.9s-7.5-.9-10.6-2.6c-3.1-1.7-5.5-4.2-7.2-7.4-1.8-3.2-2.6-7-2.6-11.3s.9-8.1,2.6-11.3c1.8-3.2,4.2-5.7,7.2-7.4,3.1-1.7,6.6-2.6,10.6-2.6s7.6.8,10.6,2.5c3,1.7,5.4,4,7,6.9,1.6,2.9,2.4,6.2,2.4,9.8s-.1,2.6-.3,3.7ZM88.6,443.2c-1-1.8-2.4-3.2-4.2-4.1-1.8-.9-3.7-1.3-5.8-1.3-3.4,0-6.2,1-8.4,3.1-2.3,2.1-3.5,5.1-3.7,9.1h23.5c0-2.7-.4-5-1.4-6.8Z"/>
        <path class="cls-1" d="M133,433.8c2.7,1.9,4.5,4.3,5.6,7.4v-9.6h8.6v41.4h-8.6v-9.6c-1.1,3.1-3,5.5-5.6,7.4-2.7,1.9-5.9,2.8-9.6,2.8s-6.8-.9-9.6-2.6c-2.8-1.7-5-4.2-6.6-7.4-1.6-3.2-2.4-7-2.4-11.3s.8-8.1,2.4-11.3c1.6-3.2,3.8-5.7,6.6-7.4,2.8-1.7,6-2.6,9.6-2.6s7,.9,9.6,2.8ZM116.9,442.1c-2.3,2.4-3.4,5.8-3.4,10s1.1,7.6,3.4,10c2.3,2.4,5.3,3.6,9.1,3.6s4.6-.6,6.5-1.7c1.9-1.1,3.4-2.7,4.5-4.8,1.1-2.1,1.7-4.5,1.7-7.2s-.6-5.1-1.7-7.2c-1.1-2.1-2.6-3.7-4.5-4.8-1.9-1.1-4.1-1.7-6.5-1.7-3.8,0-6.8,1.2-9.1,3.6Z"/>
        <path class="cls-1" d="M189.2,435.2c3.5,2.8,5.7,6.7,6.5,11.5h-9.1c-.5-2.6-1.7-4.6-3.6-6.1-1.9-1.5-4.3-2.2-7.2-2.2s-6.1,1.2-8.3,3.5c-2.2,2.3-3.3,5.7-3.3,10.2s1.1,7.9,3.3,10.3c2.2,2.4,5,3.5,8.3,3.5s5.3-.8,7.2-2.3c1.9-1.5,3.1-3.6,3.6-6.2h9.1c-.9,4.9-3,8.7-6.5,11.6-3.5,2.9-7.9,4.3-13.3,4.3s-7.5-.9-10.6-2.6c-3.1-1.7-5.5-4.2-7.2-7.4-1.8-3.2-2.6-7-2.6-11.3s.9-8.1,2.6-11.3c1.8-3.2,4.2-5.7,7.2-7.4,3.1-1.7,6.6-2.6,10.6-2.6s9.8,1.4,13.3,4.2Z"/>
        <path class="cls-1" d="M224.7,465.4v7.4h-5.3c-4.4,0-7.7-1.1-10-3.2-2.3-2.1-3.4-5.7-3.4-10.6v-20.3h-5.9v-7.3h5.9v-10.3h8.6v10.3h10v7.3h-10v20.4c0,2.4.4,4,1.3,4.9.9.9,2.4,1.4,4.6,1.4h4.1Z"/>
        <path class="cls-1" d="M293.2,472.9h-8.6l-25.7-39.1v39.1h-8.6v-52.9h8.6l25.7,39.2v-39.2h8.6v52.9Z"/>
        <path class="cls-1" d="M329.7,433.8c2.7,1.9,4.5,4.3,5.6,7.4v-9.6h8.6v41.4h-8.6v-9.6c-1.1,3.1-3,5.5-5.6,7.4-2.7,1.9-5.9,2.8-9.6,2.8s-6.8-.9-9.6-2.6c-2.8-1.7-5-4.2-6.6-7.4-1.6-3.2-2.4-7-2.4-11.3s.8-8.1,2.4-11.3c1.6-3.2,3.8-5.7,6.6-7.4,2.8-1.7,6-2.6,9.6-2.6s7,.9,9.6,2.8ZM313.6,442.1c-2.3,2.4-3.4,5.8-3.4,10s1.1,7.6,3.4,10c2.3,2.4,5.3,3.6,9.1,3.6s4.6-.6,6.5-1.7,3.4-2.7,4.5-4.8c1.1-2.1,1.7-4.5,1.7-7.2s-.6-5.1-1.7-7.2c-1.1-2.1-2.6-3.7-4.5-4.8s-4.1-1.7-6.5-1.7c-3.8,0-6.8,1.2-9.1,3.6Z"/>
        <path class="cls-1" d="M375,465.4v7.4h-5.3c-4.4,0-7.7-1.1-10-3.2-2.3-2.1-3.4-5.7-3.4-10.6v-20.3h-5.9v-7.3h5.9v-10.3h8.6v10.3h10v7.3h-10v20.4c0,2.4.4,4,1.3,4.9.9.9,2.4,1.4,4.6,1.4h4.1Z"/>
        <path class="cls-1" d="M383.3,415.9c1-1,2.3-1.4,4-1.4s3,.5,4,1.4c1,1,1.5,2.2,1.5,3.6s-.5,2.6-1.5,3.5c-1,.9-2.4,1.4-4,1.4s-3-.5-4-1.4c-1-.9-1.5-2.1-1.5-3.5s.5-2.7,1.5-3.6ZM391.6,431.5v41.4h-8.6v-41.4h8.6Z"/>
        <path class="cls-1" d="M418.9,464l11.7-32.5h9.2l-15.8,41.4h-10.4l-15.8-41.4h9.2l11.9,32.5Z"/>
        <path class="cls-1" d="M484.2,453.9h-31.8c.2,4.3,1.3,7.4,3.5,9.5,2.2,2.1,4.9,3.1,8.2,3.1s5.3-.7,7.2-2.2c2-1.5,3.2-3.4,3.6-5.8h9.2c-.6,2.9-1.7,5.5-3.5,7.7-1.8,2.3-4,4-6.8,5.3-2.8,1.3-5.9,1.9-9.4,1.9s-7.5-.9-10.6-2.6c-3.1-1.7-5.5-4.2-7.2-7.4-1.8-3.2-2.6-7-2.6-11.3s.9-8.1,2.6-11.3c1.8-3.2,4.2-5.7,7.2-7.4,3.1-1.7,6.6-2.6,10.6-2.6s7.6.8,10.6,2.5c3,1.7,5.4,4,7,6.9,1.6,2.9,2.4,6.2,2.4,9.8s-.1,2.6-.3,3.7ZM474.5,443.2c-1-1.8-2.4-3.2-4.2-4.1-1.8-.9-3.7-1.3-5.8-1.3-3.4,0-6.2,1-8.4,3.1-2.3,2.1-3.5,5.1-3.7,9.1h23.5c0-2.7-.4-5-1.4-6.8Z"/>
      </g>
    </g>
  </g>
</svg>