<?xml version="1.0" encoding="UTF-8"?>
<svg xmlns="http://www.w3.org/2000/svg" version="1.1" viewBox="0 0 150 150">
  <defs>
    <style>
      .cls-1 {
        fill: #fff;
      }

      .cls-2 {
        fill: #fbfeff;
      }

      .cls-3 {
        fill: #00a1e0;
      }
    </style>
  </defs>
  <!-- Generator: Adobe Illustrator 28.6.0, SVG Export Plug-In . SVG Version: 1.2.0 Build 709)  -->
  <g>
    <g id="Layer_1">
      <g>
        <path class="cls-3" d="M58.6,121.3h-2.3c-.3,0-.6-.1-1,0-.2,0-.4,0-.6,0-2.2-.2-4.4-.8-6.5-1.6-6.4-2.7-11-7.3-13.6-13.7-.2-.5-.2-.5-.8-.4-1,.2-2,.3-3,.3-4.1.2-8-.6-11.6-2.6-6.4-3.4-10.3-8.7-11.8-15.8-.2-.8-.2-1.7-.4-2.5,0-.4-.2-.9-.1-1.3v-2.1c.1-.3.2-.6.2-.9,0-.4,0-.9.2-1.3,1.2-6.9,4.7-12.3,10.7-16.1.4-.3.4-.2.2-.7-2.1-5.3-2.6-10.7-1.2-16.3,2.3-9.4,9.8-17,19.3-19.3,1.6-.4,3.3-.6,5-.8.9,0,1.8,0,2.7,0,1.1.1,2.2.2,3.2.4,6.6,1.2,12,4.4,16.2,9.6,0,.1.1.3.3.3.1-.1.3-.2.4-.4,5.5-5.3,12.1-7.6,19.7-6.8,3.2.3,6.1,1.4,8.9,2.9,3.8,2.2,6.8,5.2,9,8.9q.2.4.7.2c0,0,0,0,.1,0,5.8-2.4,11.9-2.9,18-1.5,9.6,2.3,17.4,9.2,20.8,18.6,1,2.8,1.6,5.7,1.8,8.7,0,1,0,2,0,3,0,1.2-.2,2.4-.4,3.6-1.2,6.6-4.2,12.2-9.1,16.7-7.1,6.4-15.5,8.8-25,7.3-.7-.1-.6,0-.9.4-5.6,9.3-17.2,13-27.2,8.6-.6-.3-.6-.3-.9.4-3.5,7.2-9.1,11.8-16.9,13.7-1.1.3-2.2.4-3.3.5-.3,0-.6,0-.9,0ZM83.8,64.6c0-.7.2-1.2.4-1.8.3-.9,1-1.4,1.9-1.4.4,0,.7,0,1.1.1.3,0,.4,0,.5-.3.1-.4.3-.9.5-1.3.1-.3,0-.4-.3-.5-.3,0-.7-.2-1-.2-2.8-.2-4.4.9-5.2,3.3-.2.5-.3,1-.4,1.5,0,.5-.1.5-.6.5-.3,0-.7,0-1,0-.5,0-.5,0-.6.5,0,.4-.1.8-.2,1.2,0,.4,0,.4.4.5.4,0,.8,0,1.1,0,.4,0,.4,0,.4.4-.2.9-.3,1.9-.5,2.8-.4,2.4-.9,4.8-1.3,7.2-.1.7-.3,1.4-.7,2.1-.3.6-.8,1-1.5,1-.4,0-.9,0-1.3-.1-.4,0-.4,0-.5.3-.2.4-.3.8-.4,1.2-.1.4,0,.4.3.6.7.2,1.3.3,2,.2,1.9,0,3.2-1,3.9-2.8.2-.6.4-1.2.6-1.8.5-2.6.9-5.2,1.4-7.8.2-1,.4-2,.5-3.1,0-.2.1-.3.3-.3.1,0,.3,0,.4,0,.6,0,1.1,0,1.7,0,.2,0,.4,0,.4-.2.1-.5.2-1.1.3-1.6,0-.2,0-.3-.2-.3-.1,0-.3,0-.4,0-.7,0-1.3,0-2.1,0ZM47.8,72.2h0c0-.8,0-1.5,0-2.3,0-.7,0-1.4,0-2.1-.3-1.7-1.2-2.8-2.9-3.2-2.1-.5-4.1-.2-6,.6-.1,0-.3.1-.4.2-.1,0-.2.2-.1.4.2.5.4,1,.5,1.4,0,.2.2.2.3.1.1,0,.2-.1.3-.2,1.2-.5,2.5-.7,3.9-.6,1.1.1,1.7.7,1.8,1.7.1,1.2.1,1-.9.9-1.3-.1-2.6-.2-3.9.3-1.6.6-2.7,1.6-2.9,3.4-.2,2.1.9,3.5,2.7,4,.7.2,1.3.3,2,.3,1.7,0,3.4-.3,5-.6.5-.1.5-.1.5-.7,0-1.2,0-2.4,0-3.6ZM61.9,71.4h0c1.2,0,2.4,0,3.5,0,.5,0,.5,0,.6-.5.1-1,0-1.9-.2-2.9-.5-2-1.8-3.2-3.8-3.6-.5,0-1,0-1.5,0-2.4.1-4.2,1.6-4.9,3.8-.4,1.5-.5,3-.2,4.5.5,2.2,1.8,3.7,4.1,4.2,1.4.3,2.7.3,4.1,0,.6,0,1.1-.2,1.7-.5.5-.2.5-.2.3-.7-.1-.3-.2-.6-.3-1-.2-.5-.2-.5-.7-.3-1.1.4-2.2.5-3.4.4-1.9-.1-3-1.2-3.1-3,0-.5,0-.6.5-.6,1.2,0,2.3,0,3.5,0ZM125,71.4h0c1.2,0,2.3,0,3.5,0,.6,0,.6,0,.7-.6,0-1.1,0-2.1-.3-3.1-.6-1.7-1.7-2.8-3.5-3.2-.6-.1-1.1-.1-1.7,0-2.4.1-4.3,1.6-5,3.9-.4,1.4-.5,2.8-.2,4.3.4,2.3,1.8,3.7,4,4.3,1.4.4,2.8.3,4.2,0,.6,0,1.2-.2,1.7-.5.4-.2.4-.2.3-.7-.1-.3-.2-.6-.3-1-.2-.5-.2-.5-.7-.3-1.1.4-2.2.5-3.4.5-1.9-.1-3-1.2-3.1-3,0-.5,0-.6.5-.6,1.2,0,2.3,0,3.5,0ZM86.8,70.8c0,.6,0,1.2.2,1.8.5,2.2,1.7,3.8,4,4.4.6.2,1.3.2,1.9.1,2.5-.1,4.3-1.6,5-4,.4-1.6.4-3.2,0-4.8-.4-1.4-1.2-2.5-2.5-3.2-1-.6-2.2-.8-3.4-.7-2.3.2-3.8,1.3-4.7,3.4-.4,1-.5,2-.5,3ZM72.4,77.2c.3,0,.6,0,.9,0,.9,0,1.7-.3,2.4-.8,2-1.5,1.9-4.5-.3-5.8-.3-.2-.6-.3-1-.5-.7-.3-1.4-.5-2.2-.7-.4-.2-.9-.3-1.3-.6-.6-.5-.7-1.4,0-1.9.3-.3.7-.4,1.1-.4.6,0,1.2,0,1.8.2.6.1,1.3.4,1.8.6.4.2.4.1.6-.2.1-.3.2-.6.4-1,.2-.6.2-.6-.3-.8-1.3-.7-2.8-1-4.3-.9-1,0-1.8.3-2.6.9-1.7,1.2-2.2,4.4.5,5.7.3.1.6.3.8.4.8.3,1.5.5,2.3.7.4.1.8.3,1.1.5.7.5.8,1.4.2,2-.3.3-.7.5-1.2.5-.8,0-1.6,0-2.4-.3-.6-.2-1.2-.5-1.8-.8-.5-.3-.5-.3-.7.2-.1.3-.2.6-.3,1-.2.5-.2.5.3.8,1.3.8,2.8,1.2,4.3,1.2ZM31.3,77.2c.7,0,1.3,0,1.8-.1,1.3-.3,2.4-1,2.8-2.4.6-2,0-3.4-1.6-4.2-.3-.1-.5-.3-.8-.4-.7-.3-1.5-.5-2.2-.8-.4-.2-.9-.3-1.3-.6-.6-.5-.6-1.3,0-1.8.3-.2.6-.4,1-.4.4,0,.9,0,1.3,0,.8.1,1.6.4,2.4.7.5.2.5.2.7-.3.1-.3.2-.6.4-1,.2-.5.2-.5-.3-.8-1.4-.7-2.9-1-4.5-.9-.8,0-1.6.3-2.3.8-1.9,1.2-2.4,4.7.3,5.9.2.1.5.2.7.3.4.2.9.3,1.3.4.6.2,1.3.4,1.9.7.4.2.7.6.7,1.1,0,.6-.3,1-.7,1.2-.4.2-.8.3-1.3.3-1.2,0-2.3-.3-3.4-.9-.2-.1-.4-.2-.6-.4-.2-.1-.3,0-.4.2-.1.4-.3.8-.4,1.2-.2.5-.2.5.3.8,1.3.8,2.8,1.2,4.1,1.2ZM114.2,64.4c-.2,0-.5,0-.7,0-2.5.1-4.5,1.7-5.2,4.1-.4,1.5-.4,3.1,0,4.6.6,2,1.8,3.3,3.8,3.8.7.2,1.4.2,2.2.2.9,0,1.9-.2,2.8-.5.5-.2.5-.2.4-.7-.1-.3-.2-.7-.4-1-.2-.5-.2-.5-.7-.3-.7.3-1.5.3-2.3.3-1.4,0-2.6-.6-3.1-2-.5-1.5-.5-3,0-4.4.5-1.3,1.5-1.9,2.9-1.9.8,0,1.6,0,2.4.3.4.1.4.1.6-.3.1-.4.3-.7.4-1.1.2-.5.1-.5-.3-.7-.9-.3-1.8-.4-2.8-.4ZM50.4,68.2c0,2.6,0,5.3,0,7.9,0,.1,0,.3,0,.4,0,.3.1.4.4.4.6,0,1.2,0,1.7,0,.4,0,.4,0,.4-.4,0-.1,0-.2,0-.3,0-5.3,0-10.5,0-15.8,0-.1,0-.3,0-.4,0-.3-.1-.4-.4-.4-.6,0-1.2,0-1.7,0-.4,0-.4,0-.4.4,0,.1,0,.3,0,.4,0,2.6,0,5.2,0,7.8ZM102.8,65.7c0-.1,0-.2,0-.3,0-.1,0-.2,0-.3,0-.4,0-.4-.4-.4-.4,0-.9,0-1.3,0q-.8,0-.8.7c0,3.6,0,7.2,0,10.8,0,.1,0,.3,0,.4,0,.2.1.3.3.3.6,0,1.3,0,1.9,0,.2,0,.3-.1.3-.3,0-.1,0-.3,0-.4,0-1.7,0-3.5,0-5.2,0-.6,0-1.1.1-1.7.3-1.6,1.3-2.5,3-2.4.2,0,.4,0,.6,0,.2,0,.3,0,.4-.2.2-.5.4-1.1.6-1.6,0-.2,0-.3-.2-.3,0,0-.2,0-.3,0-1.5-.3-3-.2-4.2,1,0,0,0,0-.2,0Z"/>
        <path class="cls-2" d="M83.8,64.6c.7,0,1.4,0,2.1,0,.1,0,.3,0,.4,0,.2,0,.3.1.2.3,0,.5-.2,1.1-.3,1.6,0,.2-.3.2-.4.2-.6,0-1.1,0-1.7,0-.1,0-.3,0-.4,0-.2,0-.3.1-.3.3-.2,1-.4,2-.5,3.1-.5,2.6-.9,5.2-1.4,7.8-.1.6-.3,1.2-.6,1.8-.7,1.7-2,2.7-3.9,2.8-.7,0-1.4,0-2-.2-.4-.1-.4-.2-.3-.6.1-.4.3-.8.4-1.2.1-.4.2-.4.5-.3.4.1.8.2,1.3.1.7,0,1.2-.4,1.5-1,.3-.7.5-1.3.7-2.1.4-2.4.9-4.8,1.3-7.2.2-.9.3-1.9.5-2.8,0-.4,0-.4-.4-.4-.4,0-.8,0-1.1,0-.4,0-.4,0-.4-.5,0-.4.1-.8.2-1.2,0-.5.1-.5.6-.5.3,0,.7,0,1,0,.5,0,.5,0,.6-.5,0-.5.2-1,.4-1.5.8-2.4,2.4-3.5,5.2-3.3.3,0,.7.1,1,.2.4,0,.4.2.3.5-.2.4-.3.9-.5,1.3,0,.3-.2.3-.5.3-.3-.1-.7-.2-1.1-.1-.9,0-1.6.5-1.9,1.4-.2.5-.3,1.1-.4,1.8Z"/>
        <path class="cls-2" d="M47.8,72.2c0,1.2,0,2.4,0,3.6,0,.5,0,.6-.5.7-1.6.4-3.3.7-5,.6-.7,0-1.3-.1-2-.3-1.8-.5-2.9-1.9-2.7-4,.1-1.8,1.2-2.9,2.9-3.4,1.3-.4,2.6-.4,3.9-.3,1,0,1,.3.9-.9-.1-1-.7-1.6-1.8-1.7-1.3-.1-2.6,0-3.9.6-.1,0-.2.1-.3.2-.2,0-.3,0-.3-.1-.2-.5-.4-.9-.5-1.4,0-.2,0-.3.1-.4.1,0,.2-.2.4-.2,1.9-.8,4-1.1,6-.6,1.7.4,2.6,1.5,2.9,3.2.1.7,0,1.4,0,2.1,0,.8,0,1.5,0,2.3h0ZM45.3,73.1c0-.5,0-1,0-1.5,0-.3,0-.4-.3-.4-.8,0-1.6-.2-2.4-.1-.5,0-1,.2-1.5.4-1.2.6-1.2,2.6-.2,3.2.3.1.5.3.8.3,1.1.2,2.2,0,3.2,0,.3,0,.4-.1.4-.4,0-.5,0-.9,0-1.4Z"/>
        <path class="cls-2" d="M61.9,71.4c-1.2,0-2.3,0-3.5,0-.5,0-.5,0-.5.6.2,1.8,1.3,2.9,3.1,3,1.1,0,2.3,0,3.4-.4.5-.2.5-.2.7.3.1.3.2.6.3,1,.2.5.1.5-.3.7-.5.2-1.1.4-1.7.5-1.4.2-2.7.3-4.1,0-2.2-.6-3.6-2-4.1-4.2-.3-1.5-.3-3,.2-4.5.7-2.3,2.6-3.7,4.9-3.8.5,0,1,0,1.5,0,2,.4,3.3,1.6,3.8,3.6.3.9.3,1.9.2,2.9,0,.5,0,.5-.6.5-1.2,0-2.4,0-3.5,0h0ZM60.7,69.5c.8,0,1.6,0,2.4,0,.4,0,.4,0,.4-.4,0-.4-.1-.8-.3-1.1-.3-.6-.8-1.1-1.4-1.3-1.5-.5-3,.2-3.5,1.7,0,.3-.2.5-.2.8,0,.4,0,.4.3.4.8,0,1.6,0,2.4,0Z"/>
        <path class="cls-2" d="M125,71.4c-1.2,0-2.3,0-3.5,0-.5,0-.5,0-.5.6.2,1.8,1.3,2.9,3.1,3,1.1,0,2.3,0,3.4-.5.5-.2.5-.2.7.3.1.3.2.6.3,1,.1.4.1.5-.3.7-.5.3-1.1.4-1.7.5-1.4.2-2.8.3-4.2,0-2.2-.6-3.6-2-4-4.3-.3-1.4-.2-2.8.2-4.3.7-2.3,2.6-3.8,5-3.9.6,0,1.1,0,1.7,0,1.8.4,3,1.5,3.5,3.2.4,1,.4,2.1.3,3.1,0,.6,0,.6-.7.6-1.2,0-2.3,0-3.5,0h0ZM123.8,69.5c.7,0,1.5,0,2.2,0,.7,0,.6,0,.5-.6-.1-1-.6-1.8-1.6-2.2-1.5-.6-3,0-3.6,1.5,0,.2-.2.5-.2.7-.1.6-.1.6.4.6.7,0,1.5,0,2.2,0Z"/>
        <path class="cls-2" d="M86.8,70.8c0-1,.1-2,.5-3,.8-2.1,2.4-3.2,4.7-3.4,1.2,0,2.3,0,3.4.7,1.3.7,2.1,1.8,2.5,3.2.5,1.6.5,3.2,0,4.8-.6,2.4-2.5,3.9-5,4-.6,0-1.3,0-1.9-.1-2.3-.6-3.6-2.1-4-4.4-.1-.6-.2-1.2-.2-1.8ZM95.5,70.9c0-1.1,0-2.1-.6-3-.8-1.5-2.9-1.9-4.2-.9-.5.4-.7.9-.9,1.5-.3,1-.4,2-.3,3,0,.7.2,1.4.5,2,.3.6.6,1,1.2,1.3,1.6.7,3.3,0,3.9-1.6.3-.8.4-1.6.4-2.3Z"/>
        <path class="cls-2" d="M72.4,77.2c-1.6,0-3-.4-4.3-1.2-.5-.3-.5-.3-.3-.8.1-.3.2-.6.3-1,.2-.5.2-.5.7-.2.6.3,1.1.6,1.8.8.8.2,1.6.3,2.4.3.4,0,.8-.2,1.2-.5.6-.6.5-1.5-.2-2-.3-.2-.7-.4-1.1-.5-.8-.2-1.5-.5-2.3-.7-.3,0-.6-.2-.8-.4-2.6-1.3-2.1-4.5-.5-5.7.8-.6,1.7-.9,2.6-.9,1.5,0,3,.2,4.3.9.5.3.5.3.3.8-.1.3-.2.6-.4,1-.1.4-.2.4-.6.2-.6-.3-1.2-.5-1.8-.6-.6-.1-1.2-.2-1.8-.2-.4,0-.8.1-1.1.4-.6.5-.6,1.4,0,1.9.4.3.8.5,1.3.6.7.3,1.4.5,2.2.7.3.1.7.3,1,.5,2.2,1.3,2.3,4.3.3,5.8-.7.5-1.5.8-2.4.8-.3,0-.6,0-.9,0Z"/>
        <path class="cls-2" d="M31.3,77.2c-1.4,0-2.8-.4-4.1-1.2-.5-.3-.5-.3-.3-.8.1-.4.3-.8.4-1.2,0-.2.2-.3.4-.2.2.1.4.2.6.4,1,.6,2.2.9,3.4.9.4,0,.9,0,1.3-.3.5-.3.7-.7.7-1.2,0-.5-.3-.8-.7-1.1-.6-.3-1.2-.5-1.9-.7-.4-.1-.9-.3-1.3-.4-.3,0-.5-.2-.7-.3-2.7-1.3-2.3-4.7-.3-5.9.7-.4,1.5-.7,2.3-.8,1.6-.1,3.1.1,4.5.9.5.2.5.3.3.8-.1.3-.2.6-.4,1-.2.5-.2.5-.7.3-.8-.4-1.6-.6-2.4-.7-.4,0-.9,0-1.3,0-.4,0-.7.2-1,.4-.6.5-.6,1.3,0,1.8.4.3.8.5,1.3.6.7.3,1.5.5,2.2.8.3.1.6.2.8.4,1.6.8,2.2,2.2,1.6,4.2-.4,1.4-1.5,2-2.8,2.4-.5.1-1.1.1-1.8.1Z"/>
        <path class="cls-2" d="M114.2,64.4c1,0,1.9.1,2.8.4.5.1.5.2.3.7-.1.4-.3.8-.4,1.1-.1.4-.2.4-.6.3-.8-.2-1.6-.3-2.4-.3-1.4,0-2.4.7-2.9,1.9-.6,1.5-.6,2.9,0,4.4.5,1.4,1.7,1.9,3.1,2,.8,0,1.6,0,2.3-.3.5-.2.5-.2.7.3.1.3.3.7.4,1,.2.5.2.5-.4.7-.9.3-1.8.4-2.8.5-.7,0-1.5,0-2.2-.2-2-.5-3.3-1.8-3.8-3.8-.4-1.5-.4-3.1,0-4.6.7-2.5,2.7-4,5.2-4.1.2,0,.5,0,.7,0Z"/>
        <path class="cls-1" d="M50.4,68.2c0-2.6,0-5.2,0-7.8,0-.1,0-.3,0-.4,0-.4,0-.4.4-.4.6,0,1.2,0,1.7,0,.3,0,.4.1.4.4,0,.1,0,.3,0,.4,0,5.3,0,10.5,0,15.8,0,.1,0,.2,0,.3,0,.4,0,.4-.4.4-.6,0-1.2,0-1.7,0-.3,0-.4-.1-.4-.4,0-.1,0-.3,0-.4,0-2.6,0-5.3,0-7.9Z"/>
        <path class="cls-2" d="M102.8,65.7c.1,0,.1,0,.2,0,1.2-1.1,2.6-1.3,4.2-1,0,0,.2,0,.3,0,.2,0,.2.2.2.3-.2.5-.4,1.1-.6,1.6,0,.2-.2.2-.4.2-.2,0-.4,0-.6,0-1.6,0-2.7.8-3,2.4,0,.6-.1,1.1-.1,1.7,0,1.7,0,3.5,0,5.2,0,.1,0,.3,0,.4,0,.2-.1.3-.3.3-.6,0-1.3,0-1.9,0-.2,0-.3-.1-.3-.3,0-.1,0-.3,0-.4,0-3.6,0-7.2,0-10.8q0-.7.8-.7c.4,0,.9,0,1.3,0,.4,0,.4,0,.4.4,0,.1,0,.2,0,.3,0,0,0,.2,0,.3Z"/>
        <path class="cls-3" d="M45.3,73.1c0,.5,0,.9,0,1.4,0,.3-.1.4-.4.4-1.1.2-2.1.3-3.2,0-.3,0-.5-.2-.8-.3-1-.6-1-2.6.2-3.2.5-.2,1-.4,1.5-.4.8,0,1.6,0,2.4.1.2,0,.3.1.3.4,0,.5,0,1,0,1.5Z"/>
        <path class="cls-3" d="M60.7,69.5c-.8,0-1.6,0-2.4,0-.4,0-.4,0-.3-.4,0-.3.1-.5.2-.8.6-1.5,2-2.2,3.5-1.7.7.2,1.1.7,1.4,1.3.2.4.3.7.3,1.1,0,.4,0,.4-.4.4-.8,0-1.6,0-2.4,0Z"/>
        <path class="cls-3" d="M123.8,69.5c-.7,0-1.5,0-2.2,0-.6,0-.6,0-.4-.6,0-.2.1-.5.2-.7.6-1.5,2.2-2.1,3.6-1.5,1,.4,1.4,1.2,1.6,2.2,0,.6.2.6-.5.6-.7,0-1.5,0-2.2,0Z"/>
        <path class="cls-3" d="M95.5,70.9c0,.7,0,1.5-.4,2.3-.6,1.6-2.3,2.3-3.9,1.6-.6-.3-.9-.7-1.2-1.3-.3-.6-.4-1.3-.5-2,0-1,0-2,.3-3,.2-.6.4-1.1.9-1.5,1.3-1,3.5-.6,4.2.9.5.9.6,1.9.6,3Z"/>
      </g>
    </g>
  </g>
</svg>