<?xml version="1.0" encoding="UTF-8"?>
<svg xmlns="http://www.w3.org/2000/svg" version="1.1" xmlns:xlink="http://www.w3.org/1999/xlink" viewBox="0 0 500 500">
  <defs>
    <style>
      .cls-1 {
        stroke-dasharray: 1 1;
      }

      .cls-1, .cls-2, .cls-3, .cls-4 {
        fill: none;
        stroke: #bbdeed;
        stroke-miterlimit: 10;
        stroke-width: .8px;
      }

      .cls-5 {
        fill: #92a1cb;
        mix-blend-mode: multiply;
      }

      .cls-6 {
        fill: #b5d9ee;
      }

      .cls-7 {
        fill: #63b1d8;
      }

      .cls-8 {
        fill: #fff;
      }

      .cls-9 {
        fill: #304a8e;
      }

      .cls-10 {
        fill: #7cc4e4;
      }

      .cls-2 {
        stroke-dasharray: 1.1 1.1;
      }

      .cls-11 {
        fill: #b8d291;
      }

      .cls-3 {
        stroke-dasharray: .9 .9;
      }

      .cls-12 {
        fill: #90cdf1;
      }

      .cls-13 {
        fill: #6f80b9;
      }

      .cls-14 {
        isolation: isolate;
      }

      .cls-15 {
        fill: #b5dcf4;
      }

      .cls-16 {
        fill: #dae6f5;
      }

      .cls-17 {
        fill: #bbdeed;
      }

      .cls-18 {
        fill: #6578b7;
      }

      .cls-19 {
        fill: #a5c1f9;
      }

      .cls-20 {
        fill: #a0a9d0;
      }

      .cls-21 {
        fill: #f1d176;
      }

      .cls-22 {
        fill: #64559c;
      }

      .cls-23 {
        clip-path: url(#clippath);
      }

      .cls-24 {
        fill: #613f81;
      }
    </style>
    <clipPath id="clippath">
      <path class="cls-8" d="M413.5,273.7c0,11.7-9.4,21.1-21.1,21.1s-21.1-9.4-21.1-21.1,9.4-21.1,21.1-21.1,21.1,9.4,21.1,21.1Z"/>
    </clipPath>
  </defs>
  <!-- Generator: Adobe Illustrator 28.6.0, SVG Export Plug-In . SVG Version: 1.2.0 Build 709)  -->
  <g class="cls-14">
    <g id="OBJECTS">
      <g>
        <g>
          <path class="cls-20" d="M184.1,372.7l-15.7,11.6c0,1.6,1.3,2.8,2.8,2.8h136.5c1.6,0,2.8-1.3,2.8-2.8l-15.7-11.6h-110.8Z"/>
          <g>
            <g>
              <rect class="cls-9" x="184.5" y="369.1" width="110" height="7.8"/>
              <polygon class="cls-15" points="184.5 369.1 199.1 358.9 279.9 358.9 294.5 369.1 184.5 369.1"/>
            </g>
            <g>
              <path class="cls-9" d="M104,142.6h270.9c2.1,0,3.9,1.7,3.9,3.9v174.9c0,2.1-1.7,3.9-3.9,3.9H104c-2.1,0-3.9-1.7-3.9-3.9v-174.9c0-2.1,1.7-3.9,3.9-3.9Z"/>
              <g>
                <rect class="cls-19" x="108.8" y="154.6" width="261.3" height="158.8"/>
                <polygon class="cls-16" points="108.8 154.6 108.8 313.3 370.1 313.3 108.8 154.6"/>
              </g>
            </g>
            <path class="cls-9" d="M216.2,325.3v36.9c0,2.1,10.4,3.8,23.3,3.8s23.3-1.7,23.3-3.8v-36.9h-46.6Z"/>
          </g>
        </g>
        <rect class="cls-5" x="270.3" y="113.2" width="135.3" height="95.5"/>
        <g>
          <rect class="cls-6" x="263.5" y="106.3" width="135.3" height="95.5"/>
          <rect class="cls-13" x="263.5" y="106.3" width="135.3" height="8.9"/>
          <g>
            <circle class="cls-15" cx="379.6" cy="110.5" r="2.5"/>
            <circle class="cls-22" cx="386.6" cy="110.5" r="2.5"/>
            <circle class="cls-24" cx="393.3" cy="110.5" r="2.5"/>
          </g>
          <rect class="cls-7" x="272.1" y="123.2" width="27.9" height="27.9"/>
          <rect class="cls-7" x="272.1" y="160.7" width="27.9" height="27.9"/>
          <g>
            <path class="cls-4" d="M295,175.3c0-.2,0-.4,0-.6s0-.4,0-.6c-1.8-.8-2-1.6-.9-3.2-.2-.4-.4-.7-.6-1.1-1.9.3-2.5-.4-2.3-2.3-.3-.2-.7-.4-1.1-.6-1.5,1.2-2.4.9-3.2-.9-.2,0-.4,0-.6,0s-.4,0-.6,0c-.8,1.8-1.6,2-3.2.9-.4.2-.7.4-1.1.6.3,1.9-.4,2.5-2.3,2.3-.2.3-.4.7-.6,1.1,1.2,1.5.9,2.4-.9,3.2,0,.2,0,.4,0,.6s0,.4,0,.6c1.8.8,2,1.6.9,3.2.2.4.4.7.6,1.1,1.9-.3,2.5.4,2.3,2.3.3.2.7.4,1.1.6,1.5-1.2,2.4-.9,3.2.9.2,0,.4,0,.6,0s.4,0,.6,0c.8-1.8,1.6-2,3.2-.9.4-.2.7-.4,1.1-.6-.3-1.9.4-2.5,2.3-2.3.2-.3.4-.7.6-1.1-1.2-1.5-.9-2.4.9-3.2Z"/>
            <path class="cls-4" d="M290.4,174.6c0,2.2-1.8,4-4,4s-4-1.8-4-4,1.8-4,4-4,4,1.8,4,4Z"/>
            <g>
              <path class="cls-4" d="M286.4,180.6c-3.3,0-5.9-2.7-5.9-5.9s2.7-5.9,5.9-5.9"/>
              <g>
                <path class="cls-4" d="M286.4,168.7c.2,0,.3,0,.5,0"/>
                <path class="cls-1" d="M287.9,168.9c2.5.7,4.4,3,4.4,5.7s-2.1,5.4-4.9,5.8"/>
                <path class="cls-4" d="M286.9,180.5c-.2,0-.3,0-.5,0"/>
              </g>
            </g>
          </g>
          <g>
            <path class="cls-4" d="M281.4,134.4h9.7c.8,0,1.5.7,1.5,1.5v9.7c0,.8-.7,1.5-1.5,1.5h-9.7c-.8,0-1.5-.7-1.5-1.5v-9.7c0-.8.7-1.5,1.5-1.5Z"/>
            <path class="cls-4" d="M281.3,140.2v-3.2c0-.7.5-1.2,1.2-1.2h1.1"/>
            <g>
              <line class="cls-4" x1="282.6" y1="145.9" x2="283.9" y2="145.9"/>
              <line class="cls-4" x1="284.5" y1="145.9" x2="285.8" y2="145.9"/>
              <line class="cls-4" x1="286.4" y1="145.9" x2="287.7" y2="145.9"/>
              <line class="cls-4" x1="288.3" y1="145.9" x2="289.5" y2="145.9"/>
            </g>
            <path class="cls-4" d="M286.3,143.7c-1.6,0-2.8-1.3-2.8-2.8s1.3-2.8,2.8-2.8"/>
            <g>
              <path class="cls-4" d="M286.3,138c.2,0,.3,0,.5,0"/>
              <path class="cls-2" d="M287.8,138.4c.8.5,1.3,1.4,1.3,2.4s-.7,2.2-1.8,2.6"/>
              <path class="cls-4" d="M286.8,143.6c-.2,0-.3,0-.5,0"/>
            </g>
            <path class="cls-4" d="M290.9,134.4h-9.2v-4c0-1.9,1.5-3.4,3.4-3.4h2.4c1.9,0,3.4,1.5,3.4,3.4v4ZM283.5,134.4h5.7v-4c0-.9-.7-1.6-1.6-1.6h-2.4c-.9,0-1.6.7-1.6,1.6v4Z"/>
            <g>
              <line class="cls-4" x1="282.6" y1="134.2" x2="282.6" y2="133.7"/>
              <path class="cls-3" d="M282.6,132.7v-2s-.1-1.8,1.3-2.5"/>
              <path class="cls-4" d="M284.4,128.1c.2,0,.3,0,.5,0"/>
            </g>
            <path class="cls-17" d="M286.9,141l.4-1.9h-1.8l.3,2c-.2.2-.4.5-.4.8,0,.5.4,1,1,1s1-.4,1-1-.2-.6-.4-.8Z"/>
          </g>
          <g>
            <path class="cls-8" d="M390.8,124.7c0,.9-.7,1.7-1.7,1.7h-76.3c-.9,0-1.7-.7-1.7-1.7h0c0-.9.7-1.7,1.7-1.7h76.3c.9,0,1.7.7,1.7,1.7h0Z"/>
            <path class="cls-8" d="M390.8,133.8c0,.9-.7,1.7-1.7,1.7h-76.3c-.9,0-1.7-.7-1.7-1.7h0c0-.9.7-1.7,1.7-1.7h76.3c.9,0,1.7.7,1.7,1.7h0Z"/>
            <path class="cls-8" d="M390.8,142.9c0,.9-.7,1.7-1.7,1.7h-76.3c-.9,0-1.7-.7-1.7-1.7h0c0-.9.7-1.7,1.7-1.7h76.3c.9,0,1.7.7,1.7,1.7h0Z"/>
            <path class="cls-8" d="M347.7,152.1c0,.9-.7,1.7-1.7,1.7h-33.2c-.9,0-1.7-.7-1.7-1.7h0c0-.9.7-1.7,1.7-1.7h33.2c.9,0,1.7.7,1.7,1.7h0Z"/>
            <path class="cls-8" d="M390.8,160.9c0,.9-.7,1.7-1.7,1.7h-76.3c-.9,0-1.7-.7-1.7-1.7h0c0-.9.7-1.7,1.7-1.7h76.3c.9,0,1.7.7,1.7,1.7h0Z"/>
            <path class="cls-8" d="M390.8,170.1c0,.9-.7,1.7-1.7,1.7h-76.3c-.9,0-1.7-.7-1.7-1.7h0c0-.9.7-1.7,1.7-1.7h76.3c.9,0,1.7.7,1.7,1.7h0Z"/>
            <path class="cls-8" d="M390.8,179.2c0,.9-.7,1.7-1.7,1.7h-76.3c-.9,0-1.7-.7-1.7-1.7h0c0-.9.7-1.7,1.7-1.7h76.3c.9,0,1.7.7,1.7,1.7h0Z"/>
            <path class="cls-8" d="M368.8,188.3c0,.9-.7,1.7-1.7,1.7h-54.3c-.9,0-1.7-.7-1.7-1.7h0c0-.9.7-1.7,1.7-1.7h54.3c.9,0,1.7.7,1.7,1.7h0Z"/>
          </g>
        </g>
        <polygon class="cls-5" points="65.7 197.8 65.7 206.7 65.7 293.2 186.8 293.2 186.8 206.7 186.8 197.8 65.7 197.8"/>
        <g>
          <rect class="cls-5" x="355.9" y="242" width="86.5" height="125.9"/>
          <rect class="cls-6" x="349.1" y="235.4" width="86.5" height="125.9"/>
          <rect class="cls-13" x="349.1" y="235.4" width="86.5" height="10.1"/>
          <g>
            <path class="cls-15" d="M423.3,240.5c0,.9-.8,1.7-1.7,1.7s-1.7-.8-1.7-1.7.8-1.7,1.7-1.7,1.7.8,1.7,1.7Z"/>
            <path class="cls-22" d="M428.1,240.5c0,.9-.8,1.7-1.7,1.7s-1.7-.8-1.7-1.7.8-1.7,1.7-1.7,1.7.8,1.7,1.7Z"/>
            <path class="cls-24" d="M432.7,240.5c0,.9-.8,1.7-1.7,1.7s-1.7-.8-1.7-1.7.8-1.7,1.7-1.7,1.7.8,1.7,1.7Z"/>
          </g>
          <g>
            <path class="cls-8" d="M413.5,273.7c0,11.7-9.4,21.1-21.1,21.1s-21.1-9.4-21.1-21.1,9.4-21.1,21.1-21.1,21.1,9.4,21.1,21.1Z"/>
            <g class="cls-23">
              <g>
                <path class="cls-18" d="M395,283.2c-1.4-.5-2.3-1.7-4-1.5-3,.3-5.1,3.6-7.9,1.3-3.5-2.7-2.5-19.2-1.1-23,1.3-3.2,3.6,0,7-1.1,3.9-1.2,7.2,1.8,9.2,5,2.1,3.3,3.2,7.5,2.9,11.4-.3,3.6-.9,9.8-6.1,7.9Z"/>
                <path class="cls-10" d="M408.2,300.6h-7.3l-1.3-5.3s-1.1-8,4.4-8.1c0,0,2.8,2,3.6,6.7,0,0,.6,3.7.6,6.7Z"/>
                <path class="cls-10" d="M382.9,300.6l1-4s1.1-8-4.4-8.1c0,0-3.3,2.4-3,12.1h6.4"/>
                <rect class="cls-15" x="388.4" y="275.7" width="6.7" height="9.7"/>
                <path class="cls-12" d="M395.1,279.7v-4h-6.7v5.7c2.2,0,4.8-.5,6.7-1.8Z"/>
                <path class="cls-15" d="M379.6,288.5c1.5-2.3,3.8-2.9,3.8-2.9l5.6-2.1h5.4l6.9,2.1s2.3.6,3.8,2.9h-25.5Z"/>
                <path class="cls-10" d="M381,300.6h22.1v-4.2c-.1,0,3.1-4.9,3.1-4.9-.7-4.8-4.9-5.9-4.9-5.9l-5.4-1.5s.3,1.8-4.1,1.8c0,0-3.6,0-4-1.8l-4.3,1.6s-3.1,1-4.9,4.1l2.4,6.7v4.2Z"/>
                <path class="cls-15" d="M395.8,276.5c-.2.5-.5,1-1,1.4-1.1,1.1-2.4,1.9-3.8,2.5-1.7.7-4.4.8-5.7-.6-1.1-1.2-1.7-2.9-2.2-4.4-.9-2.9-.9-6.1-.7-9.2,0-.7.1-1.4.2-2.1,1.1-6.6,6.8-6.6,6.8-6.6,4.3-.2,8.2,1.8,8.9,6.4.3,1.7,0,3.6-.2,5.3,0,1.3-.2,2.5-.6,3.8-.4,1.2-1.1,2.4-1.6,3.6Z"/>
                <path class="cls-18" d="M381.9,270.1c-1.6-5-.3-10.8,1.6-12.6,5.4-5.2,15.5-3.2,18.5,4.9.9,2.5.5,11.8,0,14.7-.6,3.8-2,6.5-4.9,6.5,0-3.2-.2-6.7.1-10.5.3-3.8-.2-3.9-3.4-5.7-1.6-.9-2.5-1.8-3.5-3.3-1.2-1.8-.3-2.4-2.7-2.3,0,0-5.6-.2-5.8,8.4Z"/>
                <path class="cls-15" d="M396.4,271.4s.6-2.4,2.4-1.4c0,0,.8.4.2,2,0,0-.9,2.3-2.6,1.5v-2.1Z"/>
              </g>
            </g>
          </g>
          <g>
            <path class="cls-8" d="M425.5,304.8c0,.6-.5,1.1-1.1,1.1h-64c-.6,0-1.1-.5-1.1-1.1h0c0-.6.5-1.1,1.1-1.1h64c.6,0,1.1.5,1.1,1.1h0Z"/>
            <path class="cls-8" d="M425.5,311c0,.6-.5,1.1-1.1,1.1h-64c-.6,0-1.1-.5-1.1-1.1h0c0-.6.5-1.1,1.1-1.1h64c.6,0,1.1.5,1.1,1.1h0Z"/>
            <path class="cls-8" d="M425.5,317.2c0,.6-.5,1.1-1.1,1.1h-64c-.6,0-1.1-.5-1.1-1.1h0c0-.6.5-1.1,1.1-1.1h64c.6,0,1.1.5,1.1,1.1h0Z"/>
            <path class="cls-8" d="M384.1,323.4c0,.6-.5,1.1-1.1,1.1h-22.6c-.6,0-1.1-.5-1.1-1.1h0c0-.6.5-1.1,1.1-1.1h22.6c.6,0,1.1.5,1.1,1.1h0Z"/>
            <path class="cls-8" d="M425.5,329.5c0,.6-.5,1.1-1.1,1.1h-64c-.6,0-1.1-.5-1.1-1.1h0c0-.6.5-1.1,1.1-1.1h64c.6,0,1.1.5,1.1,1.1h0Z"/>
            <path class="cls-8" d="M425.5,335.7c0,.6-.5,1.1-1.1,1.1h-64c-.6,0-1.1-.5-1.1-1.1h0c0-.6.5-1.1,1.1-1.1h64c.6,0,1.1.5,1.1,1.1h0Z"/>
            <path class="cls-8" d="M425.5,341.9c0,.6-.5,1.1-1.1,1.1h-64c-.6,0-1.1-.5-1.1-1.1h0c0-.6.5-1.1,1.1-1.1h64c.6,0,1.1.5,1.1,1.1h0Z"/>
            <path class="cls-8" d="M398.5,348.1c0,.6-.5,1.1-1.1,1.1h-37c-.6,0-1.1-.5-1.1-1.1h0c0-.6.5-1.1,1.1-1.1h37c.6,0,1.1.5,1.1,1.1h0Z"/>
          </g>
        </g>
        <g>
          <g>
            <rect class="cls-6" x="57.5" y="188.6" width="121.1" height="95.5"/>
            <rect class="cls-13" x="57.5" y="188.6" width="121.1" height="8.9"/>
            <g>
              <circle class="cls-15" cx="159.4" cy="192.8" r="2.5"/>
              <circle class="cls-22" cx="166.4" cy="192.8" r="2.5"/>
              <circle class="cls-24" cx="173.1" cy="192.8" r="2.5"/>
            </g>
            <rect class="cls-8" x="65.7" y="205.5" width="104.9" height="71"/>
          </g>
          <polygon class="cls-11" points="65.7 276.5 92.8 234 118.1 263 138.8 238.5 170.5 276.5 65.7 276.5"/>
          <circle class="cls-21" cx="118.1" cy="227.1" r="9.2"/>
          <path class="cls-6" d="M102.3,219.5c0,1.9-1.6,3.5-3.5,3.5h-18.5c-1.9,0-3.5-1.6-3.5-3.5h0c0-1.9,1.6-3.5,3.5-3.5h18.5c1.9,0,3.5,1.6,3.5,3.5h0Z"/>
          <path class="cls-6" d="M161.9,230.5c0,1.9-1.6,3.5-3.5,3.5h-18.5c-1.9,0-3.5-1.6-3.5-3.5h0c0-1.9,1.6-3.5,3.5-3.5h18.5c1.9,0,3.5,1.6,3.5,3.5h0Z"/>
        </g>
      </g>
    </g>
  </g>
</svg>