<svg xmlns="http://www.w3.org/2000/svg" xmlns:xlink="http://www.w3.org/1999/xlink" width="5000" zoomAndPan="magnify" viewBox="0 0 3750 3749.999967" height="5000" preserveAspectRatio="xMidYMid meet" version="1.0"><path fill="#fefefe" d="M -1254.796875 -1254.796875 C 831.457031 -1254.796875 2917.699219 -1254.796875 5003.953125 -1254.796875 C 5003.953125 831.457031 5003.953125 2917.699219 5003.953125 5003.953125 C 2917.699219 5003.953125 831.457031 5003.953125 -1254.796875 5003.953125 C -1254.796875 2917.699219 -1254.796875 831.457031 -1254.796875 -1254.796875 Z M -1254.796875 -1254.796875 " fill-opacity="0.208" fill-rule="evenodd"/><path fill="#1f3042" d="M 2958.59375 622.828125 C 2961.910156 622.941406 2964.839844 622.101562 2967.355469 620.324219 C 2972.3125 619.148438 2977.320312 618.933594 2982.375 619.699219 C 3086.597656 748.164062 3168.171875 890.238281 3227.09375 1045.917969 C 3211.394531 1065.371094 3193.671875 1082.683594 3173.894531 1097.867188 C 3106.875 1137.546875 3039.707031 1176.976562 2972.363281 1216.15625 C 2981.199219 1241.09375 2988.296875 1266.539062 2993.640625 1292.515625 C 2993.554688 1294.105469 2993.140625 1295.566406 2992.390625 1296.894531 C 2915.007812 1342.058594 2835.308594 1382.941406 2753.304688 1419.566406 C 2675.296875 1453.839844 2596.4375 1485.757812 2516.726562 1515.324219 C 2515.722656 1514.75 2515.3125 1513.921875 2515.472656 1512.820312 C 2515.25 1503.746094 2513.996094 1494.984375 2511.71875 1486.535156 C 2480.574219 1294.214844 2389.621094 1137.121094 2238.835938 1015.25 C 2135.792969 934.964844 2019.378906 884.679688 1889.597656 864.414062 C 1883.652344 862.5 1877.394531 861.660156 1870.824219 861.914062 C 1815.34375 855.855469 1759.855469 855.441406 1704.339844 860.660156 C 1697.792969 860.585938 1691.535156 861.425781 1685.5625 863.164062 C 1483.605469 892.867188 1319.839844 987.574219 1194.25 1147.3125 C 1072.582031 1311.027344 1024.390625 1494.621094 1049.675781 1698.082031 C 1049.898438 1700.699219 1049.488281 1703.199219 1048.421875 1705.589844 C 1050.039062 1707.59375 1051.289062 1709.683594 1052.179688 1711.851562 C 1079.527344 1872.160156 1150.464844 2009.429688 1264.976562 2123.675781 C 1135.933594 2237.234375 1023.273438 2364.488281 927.003906 2505.460938 C 902.808594 2483.355469 879.4375 2460.398438 856.90625 2436.613281 C 789.886719 2476.179688 722.292969 2514.773438 654.121094 2552.398438 C 630.863281 2562.589844 606.667969 2568.847656 581.519531 2571.175781 C 477.011719 2443.210938 395.234375 2301.347656 336.175781 2145.582031 C 352.539062 2123.375 372.152344 2104.597656 395.007812 2089.253906 C 459.789062 2051.335938 524.664062 2013.570312 589.65625 1975.96875 C 583.597656 1951.746094 577.125 1927.539062 570.253906 1903.367188 C 570.367188 1900.050781 569.527344 1897.121094 567.75 1894.605469 C 566.046875 1885.304688 563.96875 1876.128906 561.492188 1867.066406 C 561.492188 1865.402344 561.492188 1863.726562 561.492188 1862.058594 C 490.980469 1862.058594 420.457031 1862.058594 349.945312 1862.058594 C 316.773438 1861.222656 284.855469 1854.550781 254.1875 1842.03125 C 228.425781 1677.601562 228.425781 1513.210938 254.1875 1348.84375 C 276.40625 1339.378906 299.5625 1333.535156 323.660156 1331.316406 C 402.71875 1330.53125 481.582031 1329.691406 560.242188 1328.816406 C 569.792969 1290.625 579.59375 1252.660156 589.65625 1214.90625 C 523.214844 1176.789062 457.082031 1138.1875 391.253906 1099.117188 C 370.699219 1084.410156 352.550781 1067.085938 336.804688 1047.171875 C 335.964844 1045.082031 335.964844 1043.003906 336.804688 1040.914062 C 396.4375 887.148438 478.011719 746.738281 581.519531 619.699219 C 608.546875 622.441406 634.40625 629.539062 659.128906 640.976562 C 725.222656 678.40625 791.136719 716.171875 856.90625 754.261719 C 884.21875 725.910156 912.167969 698.160156 940.773438 671.019531 C 902.957031 606.441406 865.605469 541.5625 828.742188 476.375 C 817.300781 450.824219 809.164062 424.324219 804.332031 396.886719 C 932.335938 291.640625 1074.410156 209.226562 1230.550781 149.667969 C 1252.28125 165.976562 1271.058594 185.167969 1286.882812 207.246094 C 1325.535156 272.238281 1363.714844 337.542969 1401.417969 403.144531 C 1424.546875 397.886719 1447.492188 391.628906 1470.261719 384.371094 C 1485.132812 380.4375 1500.152344 377.308594 1515.324219 374.980469 C 1515.324219 304.042969 1515.324219 233.121094 1515.324219 162.183594 C 1516.664062 150.265625 1517.917969 138.175781 1519.082031 125.882812 C 1522.261719 105.84375 1527.691406 86.441406 1535.351562 67.675781 C 1699.320312 41.878906 1863.300781 41.878906 2027.292969 67.675781 C 2038.84375 92.875 2045.316406 119.375 2046.691406 147.164062 C 2047.105469 222.679688 2047.53125 298.210938 2047.945312 373.730469 C 2085.097656 382.804688 2122.023438 392.820312 2158.726562 403.773438 C 2160.316406 403.683594 2161.777344 403.269531 2163.105469 402.519531 C 2200.859375 336.191406 2239.25 270.261719 2278.265625 204.742188 C 2293.25 183.5 2311.199219 165.136719 2332.09375 149.667969 C 2487.320312 209.3125 2629.183594 291.089844 2757.6875 395.007812 C 2754.609375 423.863281 2746.683594 451.402344 2733.902344 477.625 C 2697.128906 542.214844 2660.199219 606.679688 2623.125 671.019531 C 2651.449219 697.257812 2678.578125 724.796875 2704.488281 753.636719 C 2766.210938 719.636719 2827.546875 684.589844 2888.496094 648.488281 C 2910.601562 636.320312 2933.972656 627.773438 2958.59375 622.828125 Z M 2958.59375 622.828125 " fill-opacity="1" fill-rule="evenodd"/><path fill="#5d6976" d="M 1519.082031 125.882812 C 1517.917969 138.175781 1516.664062 150.265625 1515.324219 162.183594 C 1514.875 149.730469 1516.125 137.625 1519.082031 125.882812 Z M 1519.082031 125.882812 " fill-opacity="1" fill-rule="evenodd"/><path fill="#566372" d="M 2967.355469 620.324219 C 2964.839844 622.101562 2961.910156 622.941406 2958.59375 622.828125 C 2961.109375 621.050781 2964.039062 620.210938 2967.355469 620.324219 Z M 2967.355469 620.324219 " fill-opacity="1" fill-rule="evenodd"/><path fill="#bcc1c7" d="M 1704.339844 860.660156 C 1698.394531 862.574219 1692.136719 863.414062 1685.5625 863.164062 C 1691.535156 861.425781 1697.792969 860.585938 1704.339844 860.660156 Z M 1704.339844 860.660156 " fill-opacity="1" fill-rule="evenodd"/><path fill="#5b6775" d="M 1870.824219 861.914062 C 1877.394531 861.660156 1883.652344 862.5 1889.597656 864.414062 C 1883.050781 864.492188 1876.792969 863.652344 1870.824219 861.914062 Z M 1870.824219 861.914062 " fill-opacity="1" fill-rule="evenodd"/><path fill="#50b148" d="M 1809.488281 3250.25 C 1806.167969 3250.136719 1803.242188 3250.976562 1800.722656 3252.753906 C 1675.375 3275.546875 1549.375 3293.910156 1422.695312 3307.832031 C 1412.429688 3308.40625 1402.417969 3309.660156 1392.652344 3311.585938 C 1299.761719 3321.101562 1206.71875 3328.609375 1113.515625 3334.117188 C 1123.214844 3278.503906 1140.113281 3225.089844 1164.210938 3173.894531 C 1209.472656 3079.988281 1268.304688 2995.695312 1340.707031 2921.039062 C 1440.984375 2818.410156 1553.855469 2732.878906 1679.304688 2664.433594 C 1681.558594 2663.742188 1683.648438 2662.703125 1685.5625 2661.300781 C 1683.023438 2660.550781 1680.933594 2661.175781 1679.304688 2663.179688 C 1506.226562 2730.472656 1351.433594 2826.234375 1214.90625 2950.457031 C 1100.507812 3058.183594 1012.683594 3184.394531 951.414062 3329.109375 C 911.90625 3424.132812 887.910156 3523.019531 879.4375 3625.777344 C 877.796875 3633.023438 876.957031 3640.535156 876.933594 3648.308594 C 875.90625 3663.554688 874.867188 3678.988281 873.804688 3694.621094 C 865.203125 3640.695312 859.570312 3586.457031 856.90625 3531.894531 C 856.441406 3519.578125 855.601562 3507.484375 854.402344 3495.59375 C 848.503906 3339.699219 868.746094 3187.398438 915.113281 3038.703125 C 936.367188 2973.214844 963.90625 2910.625 997.726562 2850.941406 C 1006.390625 2835.695312 1015.988281 2821.089844 1026.515625 2807.132812 C 1118.984375 2641.148438 1233.519531 2491.566406 1370.121094 2358.378906 C 1516.601562 2217.292969 1678.917969 2097.964844 1857.054688 2000.378906 C 2042.136719 1900.289062 2236.160156 1822.265625 2439.117188 1766.300781 C 2605.425781 1714.203125 2768.566406 1653.707031 2928.550781 1584.796875 C 3030.34375 1540.585938 3127.980469 1489.265625 3221.460938 1430.832031 C 3287.425781 1389.136719 3347.722656 1340.105469 3402.339844 1283.75 C 3421.839844 1261.972656 3439.152344 1238.601562 3454.285156 1213.652344 C 3519.277344 1461.738281 3531.582031 1712.5 3491.210938 1965.957031 C 3459.367188 2149.761719 3390.933594 2318.324219 3285.925781 2471.664062 C 3236.90625 2539.058594 3182.457031 2601.84375 3122.570312 2660.050781 C 3007.046875 2768.503906 2879.78125 2860.71875 2740.789062 2936.6875 C 2580.203125 3022.621094 2412.878906 3092.292969 2238.835938 3145.730469 C 2097.640625 3188.226562 1954.527344 3223.0625 1809.488281 3250.25 Z M 1809.488281 3250.25 " fill-opacity="1" fill-rule="evenodd"/><path fill="#65717f" d="M 560.242188 1328.816406 C 481.582031 1329.691406 402.71875 1330.53125 323.660156 1331.316406 C 326.324219 1330.304688 329.242188 1329.679688 332.421875 1329.441406 C 408.367188 1328.816406 484.296875 1328.601562 560.242188 1328.816406 Z M 560.242188 1328.816406 " fill-opacity="1" fill-rule="evenodd"/><path fill="#c0c5ca" d="M 2511.71875 1486.535156 C 2513.996094 1494.984375 2515.25 1503.746094 2515.472656 1512.820312 C 2513.296875 1504.359375 2512.042969 1495.597656 2511.71875 1486.535156 Z M 2511.71875 1486.535156 " fill-opacity="1" fill-rule="evenodd"/><path fill="#505c6b" d="M 1049.675781 1698.082031 C 1051.425781 1702.347656 1052.265625 1706.945312 1052.179688 1711.851562 C 1051.289062 1709.683594 1050.039062 1707.59375 1048.421875 1705.589844 C 1049.488281 1703.199219 1049.898438 1700.699219 1049.675781 1698.082031 Z M 1049.675781 1698.082031 " fill-opacity="1" fill-rule="evenodd"/><path fill="#ebecee" d="M 349.945312 1862.058594 C 420.457031 1862.058594 490.980469 1862.058594 561.492188 1862.058594 C 561.492188 1863.726562 561.492188 1865.402344 561.492188 1867.066406 C 560.367188 1866.179688 559.941406 1864.925781 560.242188 1863.3125 C 489.929688 1863.726562 419.832031 1863.3125 349.945312 1862.058594 Z M 349.945312 1862.058594 " fill-opacity="1" fill-rule="evenodd"/><path fill="#a1a9af" d="M 567.75 1894.605469 C 569.527344 1897.121094 570.367188 1900.050781 570.253906 1903.367188 C 568.476562 1900.851562 567.636719 1897.921875 567.75 1894.605469 Z M 567.75 1894.605469 " fill-opacity="1" fill-rule="evenodd"/><path fill="#99d195" d="M 1679.304688 2664.433594 C 1679.304688 2664.019531 1679.304688 2663.59375 1679.304688 2663.179688 C 1680.933594 2661.175781 1683.023438 2660.550781 1685.5625 2661.300781 C 1683.648438 2662.703125 1681.558594 2663.742188 1679.304688 2664.433594 Z M 1679.304688 2664.433594 " fill-opacity="1" fill-rule="evenodd"/><path fill="#c1e2bd" d="M 1809.488281 3250.25 C 1806.96875 3252.027344 1804.042969 3252.867188 1800.722656 3252.753906 C 1803.242188 3250.976562 1806.167969 3250.136719 1809.488281 3250.25 Z M 1809.488281 3250.25 " fill-opacity="1" fill-rule="evenodd"/><path fill="#cbe7c8" d="M 1422.695312 3307.832031 C 1412.996094 3310.222656 1402.980469 3311.472656 1392.652344 3311.585938 C 1402.417969 3309.660156 1412.429688 3308.40625 1422.695312 3307.832031 Z M 1422.695312 3307.832031 " fill-opacity="1" fill-rule="evenodd"/><path fill="#c8e6c5" d="M 854.402344 3495.59375 C 855.601562 3507.484375 856.441406 3519.578125 856.90625 3531.894531 C 854.726562 3520.078125 853.886719 3507.972656 854.402344 3495.59375 Z M 854.402344 3495.59375 " fill-opacity="1" fill-rule="evenodd"/><path fill="#c8e7c6" d="M 879.4375 3625.777344 C 879.574219 3633.574219 878.75 3641.085938 876.933594 3648.308594 C 876.957031 3640.535156 877.796875 3633.023438 879.4375 3625.777344 Z M 879.4375 3625.777344 " fill-opacity="1" fill-rule="evenodd"/></svg>