<svg xmlns="http://www.w3.org/2000/svg" xmlns:xlink="http://www.w3.org/1999/xlink" width="5000" zoomAndPan="magnify" viewBox="0 0 3750 3749.999967" height="5000" preserveAspectRatio="xMidYMid meet" version="1.0"><path fill="#2563eb" d="M 1249.09375 839.984375 C 1055.457031 886.34375 849.546875 1051.328125 767.730469 1224.496094 L 730.910156 1304.945312 L 631.367188 1321.308594 C 267.277344 1382.664062 9.550781 1704.457031 64.09375 2026.25 C 125.457031 2382.128906 489.546875 2613.929688 909.546875 2563.476562 C 1150.910156 2534.84375 1272.273438 2433.941406 1272.273438 2264.867188 C 1272.273438 2099.878906 1201.363281 2039.882812 951.820312 1992.160156 C 737.730469 1952.617188 699.546875 1923.984375 711.820312 1820.355469 C 724.09375 1718.09375 904.09375 1685.367188 1156.363281 1738.546875 L 1200 1749.453125 L 1200 1610.375 L 1142.730469 1592.648438 C 1110 1583.105469 1010.457031 1576.285156 920.457031 1574.921875 C 767.730469 1574.921875 751.367188 1577.648438 677.730469 1614.464844 C 565.910156 1669.003906 518.183594 1744 518.183594 1863.988281 C 518.183594 1967.617188 541.367188 2018.066406 609.546875 2064.425781 C 655.910156 2095.789062 700.910156 2109.425781 936.820312 2155.785156 C 1035 2174.875 1077.273438 2211.6875 1077.273438 2275.773438 C 1077.273438 2367.128906 1000.910156 2414.851562 833.183594 2424.398438 C 636.820312 2435.304688 490.910156 2383.492188 351.820312 2252.59375 C 255.003906 2162.601562 211.367188 2063.0625 211.367188 1936.257812 C 212.730469 1697.640625 385.914062 1527.199219 694.09375 1463.113281 L 807.273438 1438.570312 L 831.820312 1360.847656 C 942.273438 1002.242188 1354.09375 826.347656 1701.820312 991.332031 C 1778.183594 1026.785156 1948.636719 1176.773438 1986.816406 1240.859375 L 2008.636719 1279.039062 L 2091.816406 1210.859375 C 2393.179688 968.152344 2892.269531 1105.871094 3005.453125 1461.75 C 3010.90625 1479.476562 3027.269531 1486.292969 3064.089844 1486.292969 C 3188.179688 1486.292969 3329.996094 1547.652344 3418.632812 1636.28125 C 3597.269531 1817.628906 3636.8125 2106.695312 3518.179688 2365.765625 C 3402.269531 2623.472656 3083.179688 2834.820312 2704.089844 2909.8125 C 2401.363281 2968.445312 1990.910156 2982.078125 1731.820312 2939.808594 C 1660.910156 2928.902344 1600.910156 2922.085938 1598.183594 2924.8125 C 1591.363281 2931.628906 1741.363281 2986.171875 1827.273438 3007.988281 C 2100 3077.527344 2556.816406 3066.617188 2867.726562 2984.808594 C 3275.453125 2877.089844 3587.722656 2598.929688 3673.632812 2267.59375 C 3700.90625 2162.601562 3702.269531 1966.253906 3674.996094 1863.988281 C 3609.542969 1610.375 3419.996094 1426.296875 3193.632812 1396.300781 C 3128.179688 1388.121094 3122.722656 1384.027344 3076.359375 1309.035156 C 2949.542969 1104.507812 2731.363281 995.425781 2447.726562 995.425781 C 2270.453125 995.425781 2127.273438 1037.695312 2050.910156 1114.050781 C 2033.179688 1131.777344 2027.726562 1130.414062 2000.453125 1094.960938 C 1831.363281 878.160156 1523.183594 773.171875 1249.09375 839.984375 Z M 1249.09375 839.984375 " fill-opacity="1" fill-rule="evenodd"/><path fill="#2563eb" d="M 2870.453125 1610.375 C 2825.453125 1615.828125 2770.90625 1628.101562 2747.726562 1636.28125 C 2593.632812 1694.914062 2520 1866.714844 2590.90625 2004.433594 C 2627.726562 2075.335938 2721.816406 2120.332031 2900.453125 2148.964844 C 2978.179688 2161.238281 3058.632812 2183.054688 3081.816406 2196.691406 C 3160.90625 2245.777344 3144.542969 2345.3125 3049.089844 2391.671875 C 2957.726562 2436.667969 2713.632812 2435.304688 2596.363281 2390.308594 C 2582.726562 2384.855469 2577.269531 2395.765625 2577.269531 2433.941406 C 2577.269531 2514.390625 2593.632812 2530.753906 2694.542969 2549.84375 C 2882.726562 2585.292969 3136.359375 2545.75 3238.632812 2465.304688 C 3314.996094 2405.308594 3347.722656 2270.320312 3308.179688 2177.601562 C 3268.632812 2083.515625 3200.453125 2048.066406 2980.90625 2005.796875 C 2899.089844 1990.796875 2818.632812 1968.980469 2800.90625 1956.710938 C 2731.363281 1911.714844 2743.632812 1809.449219 2822.726562 1768.542969 C 2863.632812 1748.089844 2893.632812 1744 3027.269531 1749.453125 C 3113.179688 1753.542969 3197.722656 1760.363281 3215.453125 1765.816406 C 3244.085938 1775.359375 3245.453125 1772.632812 3245.453125 1707.183594 L 3245.453125 1637.644531 L 3174.542969 1624.007812 C 3065.453125 1603.554688 2960.453125 1599.464844 2870.453125 1610.375 Z M 2870.453125 1610.375 " fill-opacity="1" fill-rule="evenodd"/><path fill="#2563eb" d="M 1506.820312 1973.070312 C 1403.183594 1996.25 1390.910156 2004.433594 1390.910156 2054.882812 C 1390.910156 2098.515625 1393.636719 2102.605469 1422.273438 2094.425781 C 1491.820312 2073.972656 1595.457031 2069.882812 1635 2084.878906 C 1673.183594 2101.242188 1718.183594 2173.507812 1699.089844 2191.234375 C 1695 2195.324219 1645.910156 2198.054688 1590 2196.691406 C 1471.363281 2192.597656 1416.820312 2214.414062 1377.273438 2281.226562 C 1340.457031 2341.222656 1340.457031 2439.398438 1378.636719 2487.121094 C 1442.726562 2568.933594 1536.820312 2583.929688 1644.546875 2529.390625 C 1681.363281 2510.300781 1712.726562 2495.300781 1715.453125 2495.300781 C 1716.820312 2495.300781 1718.183594 2507.574219 1718.183594 2522.570312 C 1718.183594 2545.75 1727.726562 2549.84375 1778.183594 2549.84375 L 1836.816406 2549.84375 L 1831.363281 2382.128906 C 1823.183594 2087.609375 1820.453125 2075.335938 1786.363281 2038.519531 C 1734.546875 1983.980469 1599.546875 1952.617188 1506.820312 1973.070312 Z M 1682.726562 2298.953125 C 1696.363281 2304.40625 1704.546875 2323.496094 1704.546875 2353.496094 C 1704.546875 2391.671875 1696.363281 2405.308594 1660.910156 2427.125 C 1611.820312 2457.121094 1553.183594 2462.578125 1512.273438 2440.761719 C 1474.089844 2420.308594 1476.820312 2339.859375 1516.363281 2312.589844 C 1546.363281 2290.773438 1641.820312 2283.957031 1682.726562 2298.953125 Z M 1682.726562 2298.953125 " fill-opacity="1" fill-rule="evenodd"/><path fill="#2563eb" d="M 2093.179688 1981.253906 C 2027.726562 1997.613281 2025 1998.980469 2020.910156 2050.792969 C 2016.816406 2099.878906 2018.179688 2102.605469 2048.179688 2094.425781 C 2065.910156 2088.972656 2116.363281 2080.789062 2161.363281 2076.699219 C 2232.273438 2071.246094 2248.636719 2073.972656 2281.363281 2099.878906 C 2304.542969 2118.96875 2318.179688 2142.148438 2318.179688 2165.328125 L 2318.179688 2202.144531 L 2213.179688 2198.054688 C 2125.910156 2195.324219 2098.636719 2199.417969 2063.179688 2221.234375 C 2001.816406 2259.410156 1973.179688 2309.863281 1973.179688 2376.675781 C 1973.179688 2534.84375 2117.726562 2609.835938 2269.089844 2529.390625 C 2329.089844 2498.027344 2331.816406 2496.664062 2331.816406 2522.570312 C 2331.816406 2545.75 2341.363281 2549.84375 2393.179688 2549.84375 L 2454.542969 2549.84375 L 2454.542969 2327.589844 C 2454.542969 2135.332031 2450.453125 2101.242188 2428.636719 2064.425781 C 2379.542969 1983.980469 2232.273438 1947.164062 2093.179688 1981.253906 Z M 2296.363281 2298.953125 C 2311.363281 2304.40625 2318.179688 2324.859375 2318.179688 2360.3125 C 2318.179688 2405.308594 2311.363281 2416.21875 2277.273438 2433.941406 C 2217.273438 2465.304688 2146.363281 2461.214844 2121.816406 2424.398438 C 2091.816406 2382.128906 2094.542969 2363.039062 2134.089844 2324.859375 C 2166.816406 2290.773438 2244.542969 2278.5 2296.363281 2298.953125 Z M 2296.363281 2298.953125 " fill-opacity="1" fill-rule="evenodd"/></svg>