<?xml version="1.0" encoding="UTF-8"?>
<!DOCTYPE svg PUBLIC "-//W3C//DTD SVG 1.1//EN" "http://www.w3.org/Graphics/SVG/1.1/DTD/svg11.dtd">
<svg xmlns="http://www.w3.org/2000/svg" version="1.1" width="512px" height="512px" style="shape-rendering:geometricPrecision; text-rendering:geometricPrecision; image-rendering:optimizeQuality; fill-rule:evenodd; clip-rule:evenodd" xmlns:xlink="http://www.w3.org/1999/xlink">
<g><path style="opacity:0.997" fill="#ffd92c" d="M 255.5,15.5 C 255.168,74.3357 255.501,133.002 256.5,191.5C 256.5,191.833 256.5,192.167 256.5,192.5C 255.833,192.5 255.167,192.5 254.5,192.5C 230.438,176.306 203.771,167.473 174.5,166C 144.929,164.427 116.929,170.261 90.5,183.5C 90.7502,124.83 114.417,78.3295 161.5,44C 189.828,24.725 221.162,15.225 255.5,15.5 Z"/></g>
<g><path style="opacity:1" fill="#fcbf00" d="M 255.5,15.5 C 326.638,18.1794 377.471,51.5127 408,115.5C 417.233,137.232 421.4,159.899 420.5,183.5C 364.308,157.062 309.642,159.728 256.5,191.5C 255.501,133.002 255.168,74.3357 255.5,15.5 Z"/></g>
<g><path style="opacity:1" fill="#fe9000" d="M 254.5,192.5 C 208.499,225.153 183.832,269.819 180.5,326.5C 138.563,304.699 110.729,271.032 97,225.5C 93.2123,211.701 91.0456,197.701 90.5,183.5C 116.929,170.261 144.929,164.427 174.5,166C 203.771,167.473 230.438,176.306 254.5,192.5 Z"/></g>
<g><path style="opacity:1" fill="#9bdc06" d="M 420.5,183.5 C 416.805,248.277 386.805,296.277 330.5,327.5C 328.159,270.125 303.493,225.458 256.5,193.5C 256.5,193.167 256.5,192.833 256.5,192.5C 256.5,192.167 256.5,191.833 256.5,191.5C 309.642,159.728 364.308,157.062 420.5,183.5 Z"/></g>
<g><path style="opacity:0.997" fill="#fe641a" d="M 90.5,183.5 C 91.0456,197.701 93.2123,211.701 97,225.5C 110.729,271.032 138.563,304.699 180.5,326.5C 180.5,326.833 180.5,327.167 180.5,327.5C 181.152,387.821 206.152,434.821 255.5,468.5C 255.5,468.833 255.5,469.167 255.5,469.5C 206.134,499.146 154.467,503.646 100.5,483C 42.7041,456.224 9.03747,411.391 -0.5,348.5C -0.5,336.5 -0.5,324.5 -0.5,312.5C 6.85063,261.289 31.8506,221.123 74.5,192C 79.7287,188.887 85.062,186.053 90.5,183.5 Z"/></g>
<g><path style="opacity:0.998" fill="#25d8f7" d="M 420.5,183.5 C 463.56,205.548 492.06,239.882 506,286.5C 508.179,295.237 510.012,303.903 511.5,312.5C 511.5,324.5 511.5,336.5 511.5,348.5C 499.418,421.765 457.751,469.265 386.5,491C 339.749,501.946 296.082,494.78 255.5,469.5C 255.5,469.167 255.5,468.833 255.5,468.5C 304.849,434.818 329.849,387.818 330.5,327.5C 386.805,296.277 416.805,248.277 420.5,183.5 Z"/></g>
<g><path style="opacity:1" fill="#47568b" d="M 254.5,192.5 C 255.167,192.5 255.833,192.5 256.5,192.5C 256.5,192.833 256.5,193.167 256.5,193.5C 255.501,243.997 255.168,294.664 255.5,345.5C 228.997,345.586 203.997,339.586 180.5,327.5C 180.5,327.167 180.5,326.833 180.5,326.5C 183.832,269.819 208.499,225.153 254.5,192.5 Z"/></g>
<g><path style="opacity:1" fill="#2c3b73" d="M 256.5,193.5 C 303.493,225.458 328.159,270.125 330.5,327.5C 306.918,339.312 281.918,345.312 255.5,345.5C 255.168,294.664 255.501,243.997 256.5,193.5 Z"/></g>
<g><path style="opacity:1" fill="#979eee" d="M 180.5,327.5 C 203.997,339.586 228.997,345.586 255.5,345.5C 255.5,386.5 255.5,427.5 255.5,468.5C 206.152,434.821 181.152,387.821 180.5,327.5 Z"/></g>
<g><path style="opacity:1" fill="#727ee5" d="M 330.5,327.5 C 329.849,387.818 304.849,434.818 255.5,468.5C 255.5,427.5 255.5,386.5 255.5,345.5C 281.918,345.312 306.918,339.312 330.5,327.5 Z"/></g>
</svg>
