<?xml version="1.0" encoding="UTF-8"?>
<svg id="Layer_2" xmlns="http://www.w3.org/2000/svg" version="1.1" viewBox="0 0 1399.63 1099.72">
  <!-- Generator: Adobe Illustrator 29.4.0, SVG Export Plug-In . SVG Version: 2.1.0 Build 152)  -->
  <g id="Layer_6_copy_3">
    <g>
      <polygon points="738.26 .27 682.28 224.03 131.03 224.03 0 355.06 0 132.19 130.15 2.04 131.92 .27 738.26 .27"/>
      <polygon points="645.33 371.72 589.33 595.47 131.03 595.47 0 726.5 0 503.64 130.15 373.49 131.92 371.72 645.33 371.72"/>
      <polygon points="551.93 744.94 495.95 968.69 131.03 968.69 0 1099.72 0 876.85 130.15 746.7 131.92 744.94 551.93 744.94"/>
      <polygon points="1186.89 744.58 1186.89 967.62 543.15 967.62 600.04 744.58 733.07 223.03 789.93 0 1020.09 0 963.2 223.03 830.21 744.58 1186.89 744.58"/>
      <rect x="1186.89" y="523.27" width="212.74" height="223.03"/>
    </g>
  </g>
</svg>