<svg width="60" height="60" viewBox="0 0 60 60" fill="none" xmlns="http://www.w3.org/2000/svg">
<path d="M32.6454 5.28638C32.1218 5.23402 31.7403 4.76278 31.7927 4.23919C31.8451 3.71559 32.3163 3.33408 32.8399 3.38649C39.5995 4.0996 45.6084 7.32849 49.9093 12.1158C54.1679 16.8557 56.7608 23.1265 56.7608 30.001C56.7608 37.3912 53.7638 44.0831 48.9218 48.9252C44.0798 53.7673 37.3878 56.7641 29.9976 56.7641C22.6074 56.7641 15.9154 53.7671 11.0733 48.9252C6.23126 44.0831 3.23438 37.3912 3.23438 30.001C3.23438 23.1265 5.82747 16.8559 10.0884 12.1158C14.3895 7.32862 20.3982 4.10202 27.1578 3.38904C27.6814 3.33668 28.1526 3.71816 28.205 4.24174C28.2573 4.76535 27.8759 5.2366 27.3523 5.28894C24.1508 5.62554 21.1264 6.57549 18.4059 8.01415L20.1562 11.0461C20.4205 11.5023 20.2659 12.0883 19.8097 12.3501C19.3534 12.6144 18.7674 12.4598 18.5056 12.0035L16.7553 8.97161C14.808 10.2008 13.0427 11.6918 11.5118 13.3973C10.5743 14.442 9.72155 15.5665 8.96855 16.7583L12.0005 18.5087C12.4567 18.773 12.6113 19.3564 12.347 19.8127C12.0827 20.269 11.4993 20.4236 11.043 20.1593L8.01108 18.409C6.32311 21.6029 5.31326 25.2132 5.16619 29.043H8.66189C9.19049 29.043 9.61934 29.4719 9.61934 30.0004C9.61934 30.529 9.19049 30.9579 8.66189 30.9579H5.16619C5.3108 34.7877 6.32311 38.3953 8.01108 41.5919L11.043 39.8416C11.4993 39.5798 12.0827 39.7369 12.3446 40.1932C12.6064 40.6494 12.4493 41.2329 11.993 41.4947L8.96605 43.2426C9.95593 44.8133 11.1203 46.2645 12.4268 47.571C13.7334 48.8775 15.187 50.0394 16.7553 51.0318L18.5031 48.0048C18.7649 47.5486 19.3484 47.3915 19.8047 47.6533C20.261 47.9151 20.418 48.4985 20.1562 48.9548L18.4059 51.9867C21.6024 53.6747 25.2101 54.6871 29.0399 54.8316V51.3359C29.0399 50.8073 29.4688 50.3785 29.9974 50.3785C30.526 50.3785 30.9548 50.8073 30.9548 51.3359V54.8316C34.7846 54.687 38.3923 53.6747 41.5889 51.9867L39.8385 48.9548C39.5767 48.4985 39.7338 47.9151 40.1901 47.6533C40.6464 47.3914 41.2298 47.5486 41.4916 48.0048L43.2395 51.0318C44.8103 50.0419 46.2615 48.8775 47.5679 47.571C48.8745 46.2645 50.0363 44.8109 51.0287 43.2426L48.0018 41.4947C47.5455 41.2329 47.3884 40.6495 47.6502 40.1932C47.912 39.7368 48.4954 39.5798 48.9518 39.8416L51.9837 41.5919C53.6717 38.3955 54.684 34.7877 54.8286 30.9579H51.3354C50.8068 30.9579 50.3779 30.529 50.3779 30.0004C50.3779 29.4719 50.8068 29.043 51.3354 29.043H54.8286C54.684 25.2107 53.6717 21.603 51.9837 18.409L48.9518 20.1593C48.4955 20.4236 47.9095 20.269 47.6477 19.8127C47.3834 19.3564 47.538 18.7705 47.9943 18.5087L51.0262 16.7583C50.2732 15.5665 49.423 14.442 48.4855 13.3973C46.9521 11.6918 45.1867 10.2008 43.242 8.97161L41.4916 12.0035C41.2273 12.4598 40.6439 12.6144 40.1876 12.3501C39.7313 12.0858 39.5767 11.5024 39.841 11.0461L41.5914 8.01415C38.8686 6.57549 35.8467 5.62551 32.645 5.28894L32.6454 5.28638ZM29.0426 12.7487C29.0426 12.2201 29.4714 11.7913 30 11.7913C30.5286 11.7913 30.9574 12.2201 30.9574 12.7487V29.4517L42.7487 36.2585C43.205 36.5203 43.3621 37.1037 43.1003 37.5601C42.8385 38.0163 42.2551 38.1734 41.7987 37.9116L29.606 30.8731C29.2743 30.7235 29.045 30.3894 29.045 30.0004V12.7492L29.0426 12.7487ZM51.2132 8.78681C45.7852 3.35879 38.2826 0 30 0C21.7149 0 14.2149 3.35853 8.78681 8.78681C3.35872 14.2151 0 21.7174 0 30C0 38.2851 3.35853 45.7851 8.78681 51.2132C14.2151 56.6413 21.7174 60 30 60C38.2851 60 45.7851 56.6415 51.2132 51.2132C56.6413 45.7849 60 38.2826 60 30C60 21.7149 56.6415 14.2149 51.2132 8.78681Z" fill="#1E68B2"/>
</svg>
