<svg width="60" height="60" viewBox="0 0 60 60" fill="none" xmlns="http://www.w3.org/2000/svg">
<path d="M32.4161 7.45532C31.7179 7.3855 31.2093 6.75715 31.2791 6.05904C31.349 5.36094 31.9773 4.85228 32.6754 4.92211C39.046 5.59532 44.7105 8.6347 48.7624 13.1453C52.7768 17.6134 55.2227 23.5227 55.2227 29.9976C55.2227 36.9615 52.3977 43.2672 47.835 47.8323C43.2697 52.3951 36.9641 55.22 30.0003 55.22C23.0365 55.22 16.7307 52.395 12.1656 47.8323C7.60283 43.267 4.77798 36.9615 4.77798 29.9976C4.77798 23.5221 7.22145 17.6134 11.2382 13.1453C15.2924 8.63483 20.955 5.59296 27.3252 4.92211C28.0234 4.85229 28.6517 5.36094 28.7215 6.05904C28.7913 6.75715 28.2827 7.38549 27.5846 7.45532C24.802 7.74954 22.1715 8.54738 19.7801 9.7567L21.2038 12.2201C21.5529 12.8285 21.3434 13.6065 20.7351 13.9556C20.1267 14.3046 19.3487 14.0952 18.9996 13.4868L17.5809 11.0283C15.9378 12.1079 14.4418 13.3945 13.1327 14.8507C12.3648 15.7034 11.6641 16.6159 11.0308 17.5808L13.4868 18.9996C14.0952 19.3487 14.3046 20.1266 13.9556 20.735C13.6065 21.3434 12.8286 21.5528 12.2201 21.2037L9.7567 19.7825C8.38538 22.4953 7.54257 25.5197 7.36557 28.7238H10.2005C10.9061 28.7238 11.4771 29.2948 11.4771 30.0004C11.4771 30.706 10.9061 31.277 10.2005 31.277H7.36557C7.5426 34.4784 8.38538 37.5054 9.7567 40.2183L12.2201 38.797C12.8285 38.4479 13.6065 38.6574 13.9556 39.2658C14.3046 39.8742 14.0952 40.6521 13.4868 41.0012L11.0308 42.4199C11.886 43.724 12.8709 44.9332 13.968 46.0303C15.0651 47.1273 16.2769 48.1122 17.5784 48.9675L18.9971 46.5115C19.3462 45.9031 20.1241 45.6937 20.7325 46.0427C21.3409 46.3918 21.5503 47.1697 21.2013 47.7781L19.78 50.2416C22.4928 51.6129 25.5172 52.4557 28.7213 52.6327V49.7978C28.7213 49.0921 29.2923 48.5212 29.9979 48.5212C30.7035 48.5212 31.2745 49.0921 31.2745 49.7978V52.6327C34.4759 52.4557 37.5029 51.6129 40.2158 50.2416L38.7945 47.7781C38.4455 47.1698 38.6549 46.3918 39.2633 46.0427C39.8717 45.6937 40.6496 45.9031 40.9987 46.5115L42.4174 48.9675C43.7215 48.1123 44.9307 47.1274 46.0278 46.0303C47.1248 44.9332 48.1097 43.7214 48.965 42.4199L46.509 41.0012C45.9006 40.6521 45.6912 39.8742 46.0402 39.2658C46.3893 38.6573 47.1672 38.448 47.7756 38.797L50.2391 40.2183C51.6104 37.5055 52.4532 34.481 52.6302 31.277H49.7953C49.0896 31.277 48.5187 30.706 48.5187 30.0004C48.5187 29.2948 49.0897 28.7238 49.7953 28.7238H52.6302C52.4532 25.5198 51.6104 22.4954 50.2391 19.7825L47.7756 21.2037C47.1673 21.5528 46.3893 21.3434 46.0402 20.735C45.6911 20.1266 45.9006 19.3487 46.509 18.9996L48.965 17.5808C48.3341 16.6184 47.6311 15.7058 46.863 14.8507C45.554 13.3946 44.0605 12.1079 42.4149 11.0283L40.9961 13.4868C40.6471 14.0952 39.8692 14.3046 39.2607 13.9556C38.6524 13.6065 38.4429 12.8286 38.792 12.2201L40.2157 9.7567C37.8271 8.54745 35.1941 7.74957 32.4112 7.45532H32.4161ZM28.7234 13.9928C28.7234 13.2871 29.2944 12.7162 30 12.7162C30.7056 12.7162 31.2766 13.2871 31.2766 13.9928V29.2698L42.0204 35.4733C42.6288 35.8223 42.8382 36.6003 42.4892 37.2087C42.1401 37.8171 41.3622 38.0265 40.7538 37.6774L29.4712 31.1649C29.0299 30.9629 28.7207 30.5191 28.7207 30.0005V13.9933L28.7234 13.9928ZM30 0C38.2832 0 45.7851 3.35853 51.2132 8.78681C56.6413 14.2151 60 21.7174 60 30C60 38.2826 56.6415 45.7851 51.2132 51.2132C45.7849 56.6413 38.2826 60 30 60C21.7174 60 14.2149 56.6415 8.78681 51.2132C3.35872 45.7849 0 38.2826 0 30C0 21.7174 3.35853 14.2149 8.78681 8.78681C14.2151 3.35872 21.7174 0 30 0ZM49.4081 10.5919C44.4414 5.62519 37.5798 2.55319 30 2.55319C22.4202 2.55319 15.5585 5.625 10.5919 10.5919C5.62532 15.5588 2.55319 22.4202 2.55319 30C2.55319 37.5798 5.625 44.4415 10.5919 49.4081C15.5588 54.3747 22.4202 57.4468 30 57.4468C37.5798 57.4468 44.4415 54.375 49.4081 49.4081C54.3747 44.4412 57.4468 37.5798 57.4468 30C57.4468 22.4202 54.375 15.5585 49.4081 10.5919Z" fill="#1E68B2"/>
</svg>
