<svg width="40" height="40" viewBox="0 0 40 40" fill="none" xmlns="http://www.w3.org/2000/svg">
<path d="M10.0915 13.2355C8.94621 12.0886 7.14986 11.9098 5.80051 12.8105C4.45284 13.7112 3.92662 15.4383 4.54732 16.9361C5.16802 18.4356 6.76026 19.2857 8.35081 18.9703C9.94136 18.6549 11.0866 17.2583 11.0866 15.6374C11.0866 14.7367 10.729 13.8714 10.0915 13.2355ZM20.2995 2.88591C20.3045 3.01578 20.2539 3.14397 20.1628 3.23674C20.0718 3.33119 19.9469 3.38517 19.8154 3.38517C19.6838 3.38517 19.559 3.33119 19.4679 3.23674C19.3768 3.14397 19.3279 3.01578 19.3313 2.88591V0.49926C19.3279 0.369385 19.3768 0.241195 19.4679 0.14674C19.559 0.0539741 19.6838 0 19.8154 0C19.9469 0 20.0718 0.0539741 20.1628 0.14674C20.2539 0.241195 20.3045 0.369381 20.2995 0.49926V2.88591ZM31.9648 10.1793C31.8551 10.2468 31.7219 10.2653 31.5954 10.2333C31.4706 10.2012 31.3626 10.1186 31.2985 10.0073C31.2344 9.89426 31.2176 9.76102 31.253 9.6362C31.2884 9.51138 31.371 9.40512 31.4857 9.34271L33.552 8.15023C33.7813 8.02373 34.0698 8.10469 34.2013 8.3324C34.3329 8.5601 34.257 8.8502 34.0327 8.98682L31.9648 10.1793ZM27.1106 4.96758C27.0481 5.08059 26.9436 5.16492 26.8188 5.20034C26.6939 5.23576 26.5607 5.21889 26.4477 5.1548C26.3347 5.0907 26.2537 4.98276 26.22 4.85794C26.1879 4.73144 26.2082 4.59819 26.274 4.48687L27.4681 2.42066L27.4698 2.42235C27.5305 2.30765 27.6368 2.22163 27.7616 2.18621C27.8864 2.15079 28.0214 2.16765 28.1327 2.23175C28.2457 2.29753 28.3283 2.40548 28.3604 2.53029C28.3924 2.6568 28.3722 2.79004 28.303 2.90136L27.1106 4.96758ZM8.14709 9.34293C8.37817 9.47787 8.45575 9.77135 8.32419 10.0024C8.19095 10.2318 7.89577 10.3111 7.6664 10.1795L5.5985 8.98703H5.59682C5.48718 8.92294 5.40622 8.81668 5.37249 8.69355C5.34044 8.56873 5.35731 8.43717 5.4214 8.32585C5.55634 8.09477 5.8515 8.01719 6.08256 8.15043L8.14709 9.34293ZM13.3571 4.48699C13.4836 4.71807 13.4026 5.00648 13.1749 5.13637C12.9472 5.26793 12.6571 5.19203 12.5222 4.9677L11.328 2.90149C11.2623 2.79017 11.242 2.65691 11.2741 2.5321C11.3078 2.4056 11.3888 2.29934 11.5018 2.23355C11.6131 2.16946 11.748 2.15259 11.8728 2.18801C11.9976 2.22343 12.1022 2.30777 12.1646 2.42246L13.3571 4.48699ZM5.65046 39.3257V23.2682C5.65046 23.2531 5.64372 23.2362 5.63191 23.2261C5.62011 23.2143 5.60324 23.2075 5.58637 23.2075H0.0607212C0.0438541 23.2058 0.0269876 23.2126 0.0151802 23.2261C0.00506028 23.2379 0 23.2531 0 23.2682V39.9376C0 39.9545 0.00506028 39.9696 0.0151802 39.9814C0.0269871 39.9933 0.0438537 40 0.0607212 40H5.5881C5.62183 40 5.64882 39.973 5.6505 39.9376L5.65046 39.3257ZM6.61863 23.3965H9.06771C9.25662 23.3948 9.44553 23.4268 9.62434 23.4876C9.93975 22.5397 10.3884 21.6423 10.9534 20.8209C10.5301 20.5915 10.0848 20.4094 9.62434 20.2744C8.38462 19.9152 7.06899 19.9084 5.8259 20.2542C4.58281 20.6016 3.45946 21.2881 2.58577 22.2378H5.58807C6.15648 22.2411 6.61526 22.6999 6.61863 23.2683V23.3965ZM9.87227 32.7137L9.81661 30.3051V30.214V30.209C9.81492 30.1331 9.81492 30.1449 9.81492 30.1179C9.81661 29.875 9.83516 29.6321 9.87564 29.3909V25.1641C9.87058 24.7205 9.51301 24.3629 9.07108 24.3595H6.622L6.62031 38.8414H9.07108C9.51298 38.8397 9.87227 38.4821 9.87564 38.0402L9.87227 32.7137ZM10.8388 26.552H11.3903C11.6399 26.3058 11.9081 26.078 12.1932 25.8706C13.8174 24.7372 15.7571 24.1434 17.7374 24.1755C18.9838 24.1687 20.2202 24.3931 21.384 24.8384C22.3926 25.2162 23.3119 25.7998 24.0844 26.5521H29.5915C29.4785 23.4418 27.893 20.5709 25.3208 18.8187C22.7486 17.0662 19.495 16.6428 16.5601 17.6768C13.6236 18.7124 11.3566 21.0822 10.4511 24.0591C10.7025 24.3728 10.8391 24.7641 10.8391 25.1656L10.8388 26.552ZM10.8388 29.475V32.8704L10.9147 36.2454L30.8276 36.1274C31.3674 36.1274 31.811 35.6332 32.2427 35.1558C32.4148 34.9669 32.5851 34.7763 32.7572 34.6144L38.5238 29.1885C39.0652 28.6504 39.2001 27.8274 38.8611 27.1442C38.7397 26.8592 38.5693 26.5961 38.3568 26.3717C38.1544 26.1541 37.9132 25.9804 37.6433 25.8589C36.9433 25.5638 36.1337 25.7611 35.648 26.343L31.6589 30.3422V30.3438C30.851 31.1771 29.7176 31.6139 28.5571 31.538L27.1841 31.4672L19.044 31.4554V31.457C18.7775 31.457 18.5616 31.2395 18.5616 30.9746C18.5616 30.7081 18.7775 30.4922 19.044 30.4922L27.2092 30.5057H27.9479C28.3426 30.5057 28.7221 30.3472 29.0004 30.0638C29.2804 29.7839 29.439 29.4044 29.439 29.008C29.4322 28.2254 28.825 27.5777 28.0424 27.5203H25.8716L23.9134 27.5254H23.915C23.77 27.5338 23.63 27.4782 23.5305 27.3736C22.8322 26.6466 21.9787 26.0883 21.0342 25.7358C19.9817 25.3377 18.8635 25.137 17.7367 25.1438C15.9623 25.1117 14.22 25.638 12.7612 26.65C11.7812 27.3111 11.0947 28.3232 10.8384 29.4769L10.8388 29.475ZM38.7028 25.3848C38.2727 23.5261 37.0987 21.9271 35.4542 20.9607C33.8097 19.9942 31.8413 19.7462 30.008 20.2742C29.5475 20.4091 29.1022 20.593 28.6789 20.8207C29.8427 22.5107 30.4955 24.501 30.5596 26.5519H34.0763L34.9652 25.6613C35.7225 24.7825 36.9656 24.5025 38.0283 24.9714C38.2695 25.0794 38.4971 25.2177 38.7046 25.383L38.7028 25.3848ZM33.1115 27.5218L29.8967 27.5201C30.2256 27.9469 30.4027 28.4697 30.4044 29.0078C30.406 29.4767 30.2711 29.9355 30.0181 30.3302C30.374 30.1699 30.6978 29.9439 30.9728 29.6656L33.1115 27.5218ZM19.8153 6.38084C17.486 6.38252 15.4805 8.02873 15.0267 10.3142C14.5713 12.598 15.7958 14.8869 17.948 15.7772C20.1003 16.6695 22.5829 15.9156 23.8766 13.9775C25.1703 12.0412 24.9173 9.45883 23.2694 7.81111C22.3535 6.89523 21.1107 6.38084 19.8153 6.38084ZM31.9426 12.2403C30.32 12.2403 28.9218 13.3855 28.6046 14.9777C28.2892 16.5683 29.141 18.1622 30.6405 18.7829C32.1383 19.4036 33.8688 18.8791 34.7695 17.5297C35.6701 16.1804 35.4914 14.3823 34.3444 13.2354C33.7068 12.5978 32.8433 12.2386 31.9426 12.2386L31.9426 12.2403Z" fill="#1E68B2"/>
</svg>
