<svg width="40" height="47" viewBox="0 0 40 47" fill="none" xmlns="http://www.w3.org/2000/svg">
<path fill-rule="evenodd" clip-rule="evenodd" d="M20.0024 28.2558C15.4343 28.2558 11.1293 26.0312 8.48007 22.306C8.2669 22.0093 8.33946 21.5978 8.63432 21.3873C8.92918 21.1764 9.34207 21.2458 9.55072 21.5425C11.955 24.9212 15.8608 26.9385 20.0025 26.9385C23.6044 26.9385 26.9613 25.4628 29.3838 22.8516L29.1842 22.9038C28.8303 22.9959 28.472 22.7854 28.3767 22.4334C28.286 22.0814 28.4991 21.7211 28.8485 21.6296L30.9624 21.0762C31.1665 21.0235 31.3797 21.0694 31.5431 21.2C31.7064 21.3306 31.7971 21.5307 31.7881 21.7394L31.7019 23.9232C31.6882 24.2871 31.3843 24.572 31.0214 24.556C30.6585 24.542 30.3727 24.2354 30.3863 23.8719L30.3954 23.7C27.7235 26.6101 23.9991 28.2559 20.0026 28.2559L20.0024 28.2558ZM8.45739 7.0555C8.57531 7.15075 8.72505 7.2011 8.87018 7.2011C8.92467 7.2011 8.98358 7.19385 9.03798 7.17973L11.1519 6.62634C11.5058 6.5342 11.7144 6.17412 11.6237 5.82203C11.5284 5.47042 11.1701 5.25951 10.8208 5.35165L10.6167 5.40426C13.0391 2.79361 16.396 1.31742 20.0024 1.31742C24.1395 1.31742 28.0453 3.33477 30.4497 6.7134C30.6583 7.01004 31.0712 7.0795 31.366 6.8685C31.6654 6.65796 31.7335 6.24659 31.5202 5.94994C28.8755 2.22421 24.566 0 20.0024 0C16.0013 0 12.2815 1.64626 9.60954 4.55591L9.61406 4.38396C9.6277 4.02011 9.3464 3.71396 8.98349 3.69984C8.61606 3.68488 8.31207 3.96882 8.29852 4.3322L8.21231 6.51604C8.20318 6.72469 8.294 6.92478 8.45729 7.05541L8.45739 7.0555ZM25.2258 15.4763L24.6481 16.8688L25.3953 17.9831L23.8551 19.5233L22.741 18.7761L21.3485 19.3538L21.0891 20.669H18.911L18.6516 19.3538L17.2591 18.7761L16.1449 19.5233L14.6048 17.9831L15.3519 16.8688L14.7743 15.4763L13.4589 15.2169V13.0388L14.7743 12.7795L15.3519 11.3869L14.6048 10.2728L16.1449 8.73263L17.2591 9.47981L18.6516 8.90213L18.911 7.58687H21.0891L21.3485 8.90213L22.741 9.47981L23.8551 8.73263L25.3953 10.2728L24.6481 11.3869L25.2258 12.7795L26.5411 13.0388V15.2169L25.2258 15.4763ZM23.3412 14.1279C23.3412 12.2877 21.8403 10.7869 20.0001 10.7869C18.1599 10.7869 16.659 12.2877 16.659 14.1279C16.659 15.9682 18.1599 17.469 20.0001 17.469C21.8403 17.469 23.3412 15.9682 23.3412 14.1279ZM28.0829 19.2389H39.0002C38.7484 16.4451 36.4009 14.2556 33.5415 14.2556C30.6821 14.2556 28.3346 16.4451 28.0829 19.2389ZM33.5415 14.2379C34.9794 14.2379 36.1521 13.0652 36.1521 11.6273C36.1521 10.1894 34.9794 9.01676 33.5415 9.01676C32.1036 9.01676 30.931 10.1895 30.931 11.6273C30.931 13.0651 32.1036 14.2379 33.5415 14.2379ZM6.45886 14.2556C3.59946 14.2556 1.25196 16.4451 1.0002 19.2389H11.9175C11.6658 16.4451 9.31826 14.2556 6.45886 14.2556ZM6.45886 14.2379C7.89675 14.2379 9.06942 13.0652 9.06942 11.6273C9.06942 10.1894 7.89675 9.01676 6.45886 9.01676C5.02097 9.01676 3.8483 10.1895 3.8483 11.6273C3.8483 13.0651 5.02097 14.2379 6.45886 14.2379ZM29.0042 43.7181H22.0341C21.5105 43.7181 21.0818 44.1469 21.0818 44.6704V46.6772H29.9565V44.6704C29.9565 44.1469 29.5277 43.7181 29.0042 43.7181ZM39.9858 22.566C39.9232 22.1047 39.6826 21.62 39.1837 21.525C38.9072 21.4724 38.6328 21.5634 38.4131 21.7321C38.1142 21.9619 37.9307 22.3159 37.8347 22.6741C37.6136 23.4992 37.4285 24.3373 37.2305 25.1685C37.0018 26.1292 36.7608 27.0876 36.4705 28.0318C35.9589 29.6955 35.2152 31.5968 34.0045 32.8794C33.7381 33.1615 33.4535 33.4279 33.1588 33.6802C32.651 34.1148 32.1024 34.5191 31.5348 34.8721C31.1298 35.1238 30.634 35.4058 30.1779 35.5498C29.8128 35.665 29.4303 35.5163 29.3109 35.1383C29.21 34.8189 29.4167 34.4476 29.7326 34.3478C30.1284 34.223 30.5744 33.9591 30.9229 33.7363C31.4367 33.4078 31.9328 33.0318 32.391 32.6293C32.6197 32.4284 32.8412 32.2182 33.0512 31.9977C33.3866 31.6454 33.7595 31.2051 33.9663 30.7619C34.131 30.4087 34.1159 30.0173 33.8585 29.713C33.673 29.4936 33.397 29.3683 33.1106 29.3635C32.7519 29.3576 32.4371 29.535 32.1979 29.7929L32.1955 29.7954C31.4139 30.577 30.5624 31.2717 29.6294 31.8651C28.8805 32.3413 28.1009 32.7364 27.2892 33.0928C26.6212 33.3861 25.938 33.6473 25.2742 33.9486C24.7114 34.204 24.1542 34.4964 23.6802 34.8976C22.8984 35.5592 22.4924 36.4024 22.2619 37.3874C22.098 38.0873 22.0312 38.8215 22.0077 39.5387C21.9759 40.5061 22.0222 41.484 22.1004 42.4488H29.0041H29.0227C29.6404 40.7908 30.9149 39.5351 32.2134 38.3832C33.3827 37.346 34.6234 36.385 35.7061 35.2534C37.2013 33.6906 37.7334 32.3054 38.3571 30.2763C38.6725 29.2506 38.9519 28.2064 39.2083 27.1644C39.4349 26.2431 39.6476 25.3096 39.8127 24.3753C39.8766 24.0136 39.9346 23.6471 39.9708 23.2815C39.9926 23.0604 40.0157 22.7861 39.9857 22.5655L39.9858 22.566ZM17.9662 43.7181H10.9961C10.4726 43.7181 10.0438 44.1468 10.0438 44.6704V46.6772H18.9185V44.6704C18.9185 44.1469 18.4897 43.7181 17.9662 43.7181ZM10.9961 42.4491H17.8998C17.978 41.4843 18.0242 40.5063 17.9925 39.539C17.969 38.8218 17.9022 38.0875 17.7383 37.3877C17.5077 36.4026 17.1017 35.5594 16.32 34.8979C15.846 34.4966 15.2888 34.2043 14.726 33.9489C14.0622 33.6476 13.3789 33.3864 12.711 33.0931C11.8993 32.7367 11.1197 32.3416 10.3708 31.8654C9.43778 31.272 8.58632 30.5773 7.8047 29.7957L7.80225 29.7932C7.56311 29.5353 7.24829 29.3579 6.88962 29.3638C6.60323 29.3685 6.32729 29.4938 6.14169 29.7133C5.88429 30.0175 5.86914 30.4089 6.03393 30.7622C6.2407 31.2054 6.61349 31.6457 6.94901 31.998C7.15898 32.2185 7.38053 32.4287 7.60923 32.6296C8.06728 33.032 8.56345 33.4081 9.07732 33.7366C9.42583 33.9593 9.87184 34.2233 10.2676 34.3481C10.5835 34.4479 10.7902 34.8192 10.6893 35.1386C10.5699 35.5166 10.1874 35.6654 9.82224 35.5501C9.36616 35.4062 8.87036 35.1241 8.46539 34.8723C7.89778 34.5194 7.34909 34.1151 6.84144 33.6805C6.54667 33.4282 6.26207 33.1618 5.99572 32.8797C4.78503 31.597 4.04133 29.6957 3.52973 28.0321C3.23938 27.0879 2.99835 26.1294 2.76965 25.1687C2.57173 24.3376 2.38661 23.4995 2.16553 22.6744C2.06953 22.3162 1.88601 21.9622 1.5871 21.7324C1.36753 21.5636 1.09309 21.4726 0.81649 21.5253C0.317588 21.6202 0.0771246 22.105 0.01435 22.5663C-0.0156726 22.7869 0.00738527 23.0611 0.0292199 23.2822C0.06536 23.6477 0.123429 24.0143 0.187333 24.376C0.35241 25.3104 0.56511 26.2439 0.791738 27.1652C1.04811 28.2071 1.32763 29.2513 1.64291 30.2771C2.2667 32.3061 2.79874 33.6914 4.29394 35.2542C5.37663 36.3857 6.61744 37.3467 7.78663 38.384C9.08513 39.5358 10.3596 40.7916 10.9773 42.4495C10.9835 42.4495 10.9897 42.4494 10.9959 42.4494L10.9961 42.4491Z" fill="#1E68B2"/>
</svg>
