<svg width="42" height="40" viewBox="0 0 42 40" fill="none" xmlns="http://www.w3.org/2000/svg">
<path d="M26.9763 11.6903C26.9763 10.8002 26.4969 9.96913 25.6938 9.46711L23.2479 7.93848C22.5631 8.18987 21.8168 8.32968 21.035 8.32968C20.2533 8.32968 19.5071 8.18987 18.8223 7.93848L16.3762 9.4672C15.5732 9.96913 15.0938 10.8002 15.0938 11.6903V15.4482H26.9765V11.6903H26.9763Z" fill="#1E68B2"/>
<path d="M21.0374 6.73388C22.7639 6.73388 24.1686 5.44782 24.1686 3.86702C24.1686 2.28622 22.7639 1.00024 21.0374 1.00024C19.3109 1.00024 17.9062 2.28622 17.9062 3.86702C17.9062 5.44782 19.3109 6.73388 21.0374 6.73388Z" fill="#1E68B2"/>
<path d="M39.8045 11.6903C39.8045 10.8002 39.325 9.96913 38.522 9.46711L36.076 7.93848C35.3912 8.18987 34.6449 8.32968 33.8632 8.32968C33.0815 8.32968 32.3352 8.18987 31.6504 7.93848L29.2043 9.4672C28.4013 9.96913 27.9219 10.8002 27.9219 11.6903V15.4482H39.8046V11.6903H39.8045Z" fill="#1E68B2"/>
<path d="M33.8656 6.73388C35.5921 6.73388 36.9967 5.44782 36.9967 3.86702C36.9967 2.28622 35.5921 1.00024 33.8656 1.00024C32.1391 1.00024 30.7344 2.28622 30.7344 3.86702C30.7344 5.44782 32.1391 6.73388 33.8656 6.73388Z" fill="#1E68B2"/>
<path d="M13.6638 11.6903C13.6638 10.8002 13.1844 9.96913 12.3813 9.46711L9.93538 7.93848C9.25062 8.18987 8.50425 8.32968 7.72254 8.32968C6.94083 8.32968 6.19456 8.18987 5.50979 7.93848L3.06366 9.4672C2.26069 9.96913 1.78125 10.8002 1.78125 11.6903V15.4482H13.664V11.6903H13.6638Z" fill="#1E68B2"/>
<path d="M7.72493 6.73388C9.45144 6.73388 10.8561 5.44782 10.8561 3.86702C10.8561 2.28622 9.45144 1.00024 7.72493 1.00024C5.99843 1.00024 4.59375 2.28622 4.59375 3.86702C4.59375 5.44782 5.99843 6.73388 7.72493 6.73388Z" fill="#1E68B2"/>
<path d="M20.7946 25.1702C24.1707 25.1702 26.9173 22.4236 26.9173 19.0475C26.9173 18.6338 26.8752 18.225 26.7939 17.8245H14.7953C14.714 18.2249 14.6719 18.6338 14.6719 19.0475C14.6719 22.4236 17.4185 25.1702 20.7946 25.1702Z" fill="#1E68B2"/>
<path d="M9.8455 17.8245C9.80074 18.2299 9.77734 18.6386 9.77734 19.0475C9.77734 25.1222 14.7195 30.0643 20.7941 30.0643C26.8688 30.0643 31.811 25.1222 31.811 19.0475C31.811 18.6387 31.7876 18.23 31.7428 17.8245H29.265C29.3229 18.2279 29.3537 18.6359 29.3537 19.0475C29.3537 23.7673 25.5139 27.6071 20.7941 27.6071C16.0744 27.6071 12.2345 23.7673 12.2345 19.0475C12.2345 18.6359 12.2654 18.2279 12.3233 17.8245H9.8455Z" fill="#1E68B2"/>
<path d="M41.4282 21.8048C41.5344 20.9532 41.5897 20.0858 41.5897 19.2055C41.5897 18.7414 41.5739 18.281 41.5439 17.8245H34.1924C34.2291 18.2309 34.2486 18.6393 34.2486 19.0476C34.2486 26.466 28.2133 32.5013 20.7949 32.5013C13.3765 32.5013 7.34115 26.466 7.34115 19.0475C7.34115 18.6392 7.36065 18.2308 7.39736 17.8245H0.0458137C0.0157586 18.281 0 18.7414 0 19.2055C0 20.0858 0.0552363 20.9532 0.161485 21.8048H2.73428C2.94198 23.2611 3.32125 24.6619 3.85168 25.9861L1.62614 27.271C1.96 28.0616 2.34584 28.8405 2.78602 29.6029C3.22621 30.3653 3.70774 31.0889 4.2255 31.7733L6.45396 30.4867C7.34936 31.6233 8.37699 32.6509 9.51364 33.5463L8.22704 35.7748C8.91141 36.2926 9.635 36.7741 10.3974 37.2143C11.1598 37.6545 11.9387 38.0403 12.7293 38.3742L14.0142 36.1486C15.3384 36.6791 16.7392 37.0582 18.1955 37.266V39.8388C19.0471 39.945 19.9145 40.0003 20.7949 40.0003C21.6752 40.0003 22.5426 39.9451 23.3942 39.8388V37.266C24.8505 37.0583 26.2513 36.6791 27.5755 36.1486L28.8604 38.3742C29.651 38.0403 30.4299 37.6545 31.1923 37.2143C31.9547 36.7741 32.6782 36.2926 33.3627 35.7748L32.0761 33.5463C33.2127 32.6509 34.2403 31.6233 35.1357 30.4867L37.3642 31.7733C37.882 31.0889 38.3635 30.3653 38.8037 29.6029C39.2439 28.8405 39.6297 28.0616 39.9636 27.271L37.738 25.9861C38.2685 24.6619 38.6476 23.261 38.8554 21.8048H41.4282Z" fill="#1E68B2"/>
</svg>
