<?xml version="1.0" standalone="no"?>
<!DOCTYPE svg PUBLIC "-//W3C//DTD SVG 20010904//EN"
 "http://www.w3.org/TR/2001/REC-SVG-20010904/DTD/svg10.dtd">
<svg version="1.0" xmlns="http://www.w3.org/2000/svg"
 width="500.000000pt" height="120.000000pt" viewBox="0 0 500.000000 120.000000"
 preserveAspectRatio="xMidYMid meet">

<g transform="translate(0.000000,120.000000) scale(0.100000,-0.100000)"
fill="#2a196f" stroke="none">
<path d="M139 1160 c-47 -25 -86 -71 -99 -118 -14 -51 -13 -410 2 -453 20 -61
48 -88 156 -152 134 -79 139 -81 169 -62 19 13 23 23 21 48 -3 28 -13 37 -115
96 -68 39 -116 74 -122 88 -7 14 -11 98 -11 209 0 230 9 254 91 254 32 0 672
-362 719 -406 36 -35 33 -85 -8 -127 -51 -52 -38 -107 25 -107 20 0 83 60 102
97 6 12 11 47 11 78 0 65 -26 124 -67 153 -30 21 -647 379 -700 406 -43 22
-129 20 -174 -4z"/>
<path d="M3038 998 l-48 -10 0 -90 c0 -82 -2 -89 -17 -83 -169 69 -332 -30
-333 -201 0 -156 164 -268 304 -206 45 21 46 21 46 1 0 -16 7 -19 55 -19 l55
0 0 310 c0 171 -3 309 -7 309 -5 -1 -29 -6 -55 -11z m-74 -279 c24 -19 26 -26
26 -103 0 -92 -9 -109 -71 -126 -45 -13 -98 3 -134 40 -26 27 -30 39 -30 86 0
51 3 58 37 90 33 30 44 34 92 34 39 0 60 -6 80 -21z"/>
<path d="M4418 998 l-48 -10 0 -299 0 -299 55 0 55 0 0 310 c0 171 -3 309 -7
309 -5 -1 -29 -6 -55 -11z"/>
<path d="M4138 958 c-37 -10 -37 -10 -40 -66 l-3 -57 -42 -3 -43 -3 0 -44 0
-44 43 -3 42 -3 5 -141 c5 -151 9 -163 61 -190 28 -14 124 -19 153 -8 11 4 16
19 16 48 l0 42 -50 0 c-35 -1 -54 4 -60 14 -5 8 -10 66 -10 128 l0 112 60 0
60 0 0 45 0 45 -60 0 -60 0 0 70 c0 78 0 77 -72 58z"/>
<path d="M1567 821 c-29 -15 -37 -16 -37 -5 0 10 -15 14 -55 14 l-55 0 0 -220
0 -220 55 0 55 0 0 159 c0 154 1 160 22 175 12 9 41 16 64 16 34 0 47 -5 63
-26 19 -24 21 -40 21 -175 l0 -149 55 0 55 0 0 159 c0 158 0 159 25 175 13 9
42 16 64 16 31 0 44 -6 60 -26 19 -24 21 -40 21 -176 l0 -149 58 3 57 3 0 160
c0 143 -2 164 -21 200 -49 94 -193 113 -277 38 -12 -12 -20 -14 -25 -6 -4 6
-23 20 -42 32 -44 26 -113 27 -163 2z"/>
<path d="M2292 827 c-147 -54 -196 -239 -94 -357 47 -55 101 -80 177 -80 160
0 266 137 225 290 -16 58 -89 133 -145 149 -51 14 -121 13 -163 -2z m149 -104
c34 -20 59 -68 59 -115 0 -102 -125 -162 -198 -94 -69 62 -67 149 4 205 33 26
95 28 135 4z"/>
<path d="M3285 822 c-46 -22 -90 -64 -112 -105 -21 -42 -28 -127 -13 -172 16
-50 75 -114 125 -136 62 -28 158 -25 223 7 29 14 52 29 51 32 0 4 -15 19 -34
34 -32 27 -34 27 -69 13 -66 -28 -136 -12 -170 37 -33 46 -27 48 144 48 l160
0 0 43 c0 62 -44 145 -98 181 -55 39 -146 47 -207 18z m168 -112 c15 -17 27
-35 27 -40 0 -6 -45 -10 -111 -10 l-110 0 18 31 c37 65 126 75 176 19z"/>
<path d="M3716 826 c-60 -23 -88 -56 -93 -113 -8 -83 38 -122 166 -142 83 -13
103 -24 99 -55 -7 -49 -106 -58 -186 -17 l-40 20 -27 -34 c-14 -19 -24 -39
-20 -44 3 -6 30 -19 61 -30 78 -30 185 -29 239 2 57 32 88 82 82 130 -9 69
-51 98 -167 117 -41 7 -83 17 -93 22 -27 14 -17 50 18 67 26 13 37 12 90 -3
86 -24 84 -24 112 11 l26 33 -49 21 c-62 28 -165 35 -218 15z"/>
<path d="M4510 826 c0 -2 38 -103 84 -222 83 -212 84 -219 69 -245 -19 -32
-52 -49 -94 -49 -30 0 -30 -1 -27 -47 l3 -48 57 1 c69 1 113 25 149 80 14 21
70 143 124 269 53 127 102 238 107 248 8 15 3 17 -54 17 l-63 0 -60 -145 c-32
-80 -62 -145 -65 -145 -3 0 -28 64 -56 143 l-50 142 -62 3 c-34 2 -62 1 -62
-2z"/>
<path d="M305 784 c-9 -9 -15 -28 -13 -43 3 -22 29 -41 188 -133 155 -90 187
-113 198 -140 26 -63 7 -81 -220 -211 -227 -131 -249 -137 -292 -86 -22 26
-26 40 -26 94 0 70 -14 95 -54 95 -44 0 -59 -31 -54 -112 4 -90 29 -142 87
-183 37 -26 51 -30 109 -30 l67 0 205 119 c113 65 220 132 238 150 74 69 75
191 3 265 -41 42 -368 231 -399 231 -11 0 -28 -7 -37 -16z"/>
</g>
</svg>
